<?xml version="1.0" encoding="utf-8"?>
<!-- Generator: Adobe Illustrator 17.1.0, SVG Export Plug-In . SVG Version: 6.00 Build 0)  -->
<!DOCTYPE svg PUBLIC "-//W3C//DTD SVG 1.1//EN" "http://www.w3.org/Graphics/SVG/1.1/DTD/svg11.dtd">
<svg version="1.1" id="Page_1" xmlns="http://www.w3.org/2000/svg" xmlns:xlink="http://www.w3.org/1999/xlink" x="0px" y="0px"
	 viewBox="0 0 256.9 184.2" enable-background="new 0 0 256.9 184.2" xml:space="preserve">
<g id="图层_1_1_">
	<rect x="89.5" y="137" fill-rule="evenodd" clip-rule="evenodd" fill="#1D2088" width="79.4" height="2.3"/>
	<path fill-rule="evenodd" clip-rule="evenodd" fill="#1D2088" d="M129.2,40.2c46.7,0,84.8,23.9,84.8,53.1
		c0,29.3-38.1,53.1-84.8,53.1c-46.7,0-84.8-23.9-84.8-53.1C44.5,64.1,82.6,40.2,129.2,40.2L129.2,40.2z M129.2,37.3
		c48.4,0,87.9,25.2,87.9,56.1c0,30.9-39.5,56.1-87.9,56.1c-48.4,0-87.9-25.2-87.9-56.1C41.3,62.5,80.8,37.3,129.2,37.3L129.2,37.3z"
		/>
	<path fill-rule="evenodd" clip-rule="evenodd" fill="#1D2088" d="M129.2,40.2c37.8,0,68.7,23.9,68.7,53.1
		c0,29.3-30.8,53.1-68.7,53.1c-37.8,0-68.7-23.9-68.7-53.1C60.6,64.1,91.4,40.2,129.2,40.2L129.2,40.2z M129.2,37.3
		c39.2,0,71.2,25.2,71.2,56.1c0,30.9-32,56.1-71.2,56.1C90,149.4,58,124.2,58,93.4C58,62.5,90,37.3,129.2,37.3L129.2,37.3z"/>
	<path fill-rule="evenodd" clip-rule="evenodd" fill="#1D2088" d="M129,2.3c68.8,0,124.8,40.3,124.8,89.8
		c0,49.5-56.1,89.8-124.8,89.8c-68.8,0-124.8-40.3-124.8-89.8C4.1,42.7,60.2,2.3,129,2.3L129,2.3z M129,7
		c65.1,0,118.3,38.2,118.3,85.1c0,46.9-53.1,85.1-118.3,85.1c-65.1,0-118.3-38.2-118.3-85.1C10.7,45.3,63.8,7,129,7L129,7z"/>
	<path fill-rule="evenodd" clip-rule="evenodd" fill="#1D2088" d="M76.6,104.9l60.5,0.1c3.9-3.3,6.2-7.1,7-11.6
		c-0.8-3-2.7-5.5-5.9-7.5c-2.8-0.2-5-4.2-7.4-6.6l-2-1.6c-2.5-2.1-5.4-3.9-9.1-5.1c-3.6-2-6.6-4.3-8.6-7.5c0.2-1.5,2.1-2.5,5.4-3.1
		c11.9,1.5,23.7,2.9,35.6,6.7l11.8,3.9c2.4,1.1,2.9,2.2,1.5,3.2h-16.4c-2.3,0.5-4.7,2.2-7,5.1l8,0.6l-6.7,23.4l8.3,0.2l6.7-21.3
		c0.1-2.2,1.4-3.3,3.8-3.3c5.6-1.1,10-5.2,12.9-13.4c-0.8-4.4-4.3-7.5-11.7-8.5c-17.1-3.4-33.3-3.8-47.7,1l-5.3,3.6
		c-5-0.6-7.1,1-7.9,3.5c3.8,4.2,8.8,7.8,16.1,10.4c5.7,1.7,11.8,2.8,15.1,9c1.1,4.9-1.9,9.2-7,12.6c-6,2.2-11.3,2.9-16.5,3.6
		c-6.6,0.5-13.3,0.6-19.9,0.2C84.4,101,79.8,101.8,76.6,104.9L76.6,104.9z M85.8,99.9l6.1-0.2l1.6-4.6H97l-1.6,4.3l7.4,0.5l5.1-18.5
		l-7-0.2l-3.1,11.4l-3.5-0.2L97,81l-6-0.1L85.8,99.9L85.8,99.9z M117.6,81.2l-6.9-0.3l-4.5,18.5h15.6l5.4-17.8l-6.1-0.2L116.9,97
		l-3.5-0.1L117.6,81.2L117.6,81.2z"/>
	<path fill-rule="evenodd" clip-rule="evenodd" fill="#1D2088" d="M105.3,128.2h0.7l0.8,4c0.1,0.3,0.1,0.6,0.1,0.8
		c0,0.2,0.1,0.4,0.1,0.6l0,0c0-0.3,0.1-0.7,0.2-1.2c0-0.1,0-0.2,0.1-0.2l0.8-4h0.7l0.8,4c0,0.2,0.1,0.4,0.1,0.6
		c0,0.2,0.1,0.5,0.1,0.8l0,0c0-0.3,0.1-0.5,0.1-0.7c0-0.2,0.1-0.5,0.1-0.7l0.8-4h0.7l-1.4,7h-0.7l-0.8-3.9c0-0.2-0.1-0.5-0.1-0.7
		c0-0.2-0.1-0.5-0.1-0.8c-0.1,0.4-0.1,0.7-0.2,0.9c0,0.3-0.1,0.4-0.1,0.5l-0.8,3.9h-0.7L105.3,128.2L105.3,128.2z M112.3,128.2h0.7
		v4.4c0,0.6,0.1,1.1,0.3,1.4c0.2,0.3,0.5,0.4,0.9,0.4c0.4,0,0.7-0.1,0.9-0.4c0.2-0.3,0.3-0.7,0.3-1.4v-4.4h0.7v4.6
		c0,0.8-0.2,1.4-0.5,1.8c-0.3,0.4-0.8,0.6-1.5,0.6c-0.6,0-1.1-0.2-1.4-0.7c-0.3-0.4-0.5-1.1-0.5-1.9V128.2L112.3,128.2z
		 M117.2,128.2h0.7v2.9h2.3v-2.9h0.7v7h-0.7V132H118v3.2h-0.7V128.2L117.2,128.2z M123.6,129l-0.7,3.4h1.5L123.6,129L123.6,129
		L123.6,129z M123.2,128.2h1l1.6,7H125l-0.4-1.9h-1.9l-0.4,1.9h-0.8L123.2,128.2L123.2,128.2z M126.3,128.2h0.9l1.7,3.8
		c0.1,0.3,0.2,0.5,0.3,0.8c0.1,0.2,0.2,0.5,0.3,0.7c0-0.2,0-0.4,0-0.6c0-0.2,0-0.5,0-0.8v-4h0.7v7h-0.7l-1.9-4.2
		c-0.1-0.2-0.2-0.5-0.3-0.7c-0.1-0.3-0.2-0.6-0.3-0.9c0,0.2,0,0.4,0,0.7c0,0.2,0,0.5,0,0.8v4.3h-0.7V128.2L126.3,128.2z
		 M136.4,130.1l-0.7,0.2c-0.1-0.4-0.2-0.8-0.4-1c-0.2-0.2-0.4-0.3-0.7-0.3c-0.4,0-0.7,0.2-0.9,0.7c-0.2,0.5-0.3,1.2-0.3,2.1
		c0,0.9,0.1,1.5,0.3,2c0.2,0.5,0.5,0.7,1,0.7c0.3,0,0.5-0.1,0.7-0.4c0.2-0.2,0.3-0.6,0.4-1l0.7,0.2c-0.1,0.7-0.4,1.2-0.7,1.6
		c-0.3,0.3-0.7,0.5-1.2,0.5c-0.7,0-1.2-0.3-1.5-0.9c-0.3-0.6-0.5-1.5-0.5-2.7c0-1.1,0.2-2,0.5-2.7c0.4-0.6,0.9-1,1.5-1
		c0.5,0,0.9,0.2,1.2,0.5C136.1,128.9,136.3,129.4,136.4,130.1L136.4,130.1z M137.2,128.2h0.7v2.9h2.3v-2.9h0.7v7h-0.7V132h-2.3v3.2
		h-0.7V128.2L137.2,128.2z M142.2,128.2h0.7v7h-0.7V128.2L142.2,128.2z M144.1,128.2h0.9l1.7,3.8c0.1,0.3,0.2,0.5,0.3,0.8
		c0.1,0.2,0.2,0.5,0.3,0.7c0-0.2,0-0.4,0-0.6c0-0.2,0-0.5,0-0.8v-4h0.7v7h-0.7l-1.9-4.2c-0.1-0.2-0.2-0.5-0.3-0.7
		c-0.1-0.3-0.2-0.6-0.3-0.9c0,0.2,0,0.4,0,0.7c0,0.2,0,0.5,0,0.8v4.3h-0.7V128.2L144.1,128.2z M150.5,129l-0.7,3.4h1.5L150.5,129
		L150.5,129L150.5,129z M150,128.2h1l1.6,7h-0.8l-0.4-1.9h-1.9l-0.4,1.9h-0.7L150,128.2L150,128.2z"/>
	<path fill-rule="evenodd" clip-rule="evenodd" fill="#1D2088" d="M64.9,112.6l130.1,0.2c-2.4,4.3-5.8,8.7-10.2,13L74,125.4
		C69.6,122.5,66.7,118.1,64.9,112.6L64.9,112.6z M90.7,115.5c0,0.1,0,0.2-0.1,0.3c-0.1,0.1-0.2,0.4-0.2,0.8
		c-0.1,0.5-0.1,0.8-0.1,1.1c0,0.3,0,0.7,0,1.2c0,0.5,0,1,0,1.5l0,1.5c0,0.7,0.1,1.3,0.2,2c0,0.1,0,0.2,0,0.2c0,0.1,0,0.1-0.1,0.1
		c-0.1,0-0.3-0.1-0.6-0.2c-0.4-0.1-0.7-0.2-0.9-0.3c-0.2-0.1-0.5-0.2-0.8-0.4c-0.3-0.2-0.5-0.3-0.5-0.3c-0.1-0.1-0.1-0.1-0.1-0.1
		c0,0,0.1,0,0.2,0c0.5,0.1,0.9,0.1,1.1,0.1c0.2,0,0.4,0,0.4-0.1c0.1,0,0.1-0.1,0.1-0.2c0-0.1,0-0.3,0-0.7c0-0.4,0-0.9-0.1-1.5
		c0-0.7-0.1-1.4-0.1-2.3l0-1.6c0-0.6-0.2-0.9-0.6-0.9c-0.1,0-0.3,0-0.5,0.1c-0.2,0.1-0.3,0.2-0.4,0.5c0,0.2-0.1,0.4-0.1,0.6
		c0,0.1,0.1,0.2,0.2,0.2c0.2-0.1,0.4-0.1,0.5-0.1s0.2,0,0.2,0c0,0,0.1,0.1,0.1,0.2c0,0.1,0,0.2-0.1,0.3c0,0.1-0.2,0.2-0.4,0.3
		c-0.3,0.2-0.4,0.3-0.5,0.3c-0.1,0.1-0.1,0.2-0.1,0.3c0,0.2,0,0.3,0,0.3c0,0.1,0,0.1,0.1,0.1c0.1,0,0.3,0,0.5,0c0.2,0,0.3,0,0.4,0
		c0.1,0,0.1,0,0.1,0.1c0,0.1,0,0.2,0,0.3c0,0.2,0,0.3-0.1,0.3c-0.1,0-0.1,0.1-0.3,0.1c-0.1,0-0.3,0.1-0.6,0.3
		c-0.4,0.2-0.6,0.4-0.7,0.5c0,0-0.1,0.2-0.3,0.5c-0.3,0.7-0.5,1-0.5,1.1c-0.1,0.2-0.1,0.3-0.1,0.5c0,0.1,0,0.2-0.1,0.3
		c-0.1,0.1-0.2,0.2-0.5,0.4c-0.2,0.1-0.5,0.2-0.7,0.3c-0.3,0-0.4,0.1-0.5,0.1c-0.1,0-0.1,0-0.1-0.1c0-0.1,0-0.1,0.1-0.2
		c0.4-0.3,0.6-0.6,0.7-0.8c0.1-0.2,0.2-0.3,0.2-0.3c0-0.1,0-0.1-0.1-0.1c-0.6-0.3-1-0.5-1.3-0.8c-0.3-0.2-0.5-0.4-0.5-0.5
		c0,0,0,0,0,0c0,0,0.1,0,0.1,0c0.4,0.1,0.6,0.2,0.8,0.2c0.1,0,0.2-0.1,0.2-0.3l0-0.7c0-0.1,0-0.2-0.1-0.2c0,0-0.1,0-0.2,0.1
		c-0.4,0.3-0.6,0.6-0.9,0.7c-0.2,0.1-0.5,0.4-0.8,0.7c-0.3,0.3-0.5,0.5-0.5,0.5c-0.1,0.1-0.2,0.1-0.3,0.1c-0.1,0-0.3-0.1-0.5-0.2
		c-0.2-0.2-0.3-0.3-0.3-0.3c0-0.1,0.1-0.1,0.2-0.2c0.2-0.1,0.3-0.2,0.6-0.4c0.2-0.2,0.4-0.3,0.4-0.4c0.1,0,0.1-0.1,0.1-0.3
		c-0.1-0.9-0.2-1.6-0.2-1.9l0.1-1.4l0-0.4c0-0.1,0-0.2,0.1-0.3c0.1-0.1,0.3-0.1,0.6-0.2c0.3-0.1,0.6-0.2,1-0.3
		c0.4-0.1,0.7-0.2,0.9-0.2c0.3,0,0.5,0,0.7,0.1c0.2,0.1,0.3,0.1,0.3,0.2c0,0.1,0,0.1-0.1,0.2c-0.1,0.1-0.2,0.2-0.2,0.4
		c-0.1,0.2-0.1,0.4-0.1,0.6c0,0.2,0,0.4,0,0.7c0,0.3,0,0.7,0,1.3c0,0.6-0.1,0.9-0.1,1.1c0,0.1-0.1,0.3-0.1,0.6c0,0.2,0,0.4,0.1,0.6
		c0,0.2,0.1,0.3,0.1,0.3c0,0,0.1,0.1,0.1,0.1c0,0,0,0,0.1,0c0,0,0.2-0.4,0.5-1.1c0.1-0.3,0.2-0.8,0.3-1.7c0.2-1.3,0.2-2.2,0.2-2.7
		c0-0.2,0-0.4-0.1-0.5c0-0.2,0.1-0.2,0.4-0.2c0.1,0,0.3,0,0.6-0.1c0.3,0,0.4-0.1,0.6-0.1c0.1,0,0.3-0.1,0.5-0.1
		c0.2,0,0.4-0.1,0.6-0.1c0.2,0,0.4,0,0.6,0.1c0.3,0,0.4,0.1,0.5,0.1C90.7,115.4,90.7,115.5,90.7,115.5L90.7,115.5z M83.4,120
		C83.4,120,83.5,120,83.4,120c0.4-0.3,0.8-0.5,1.2-0.7c0.1-0.1,0.1-0.1,0.1-0.2c0-0.1,0-0.3,0-0.6l0-1c0-0.6-0.1-0.9-0.2-1
		c-0.1-0.1-0.3-0.1-0.4-0.1c-0.1,0-0.2,0-0.3,0.1c-0.1,0.1-0.2,0.2-0.3,0.5c-0.1,0.2-0.1,0.4-0.1,0.5c0,0.1,0,0.1,0.1,0.2
		c0.2,0.1,0.3,0.2,0.5,0.3c0.2,0.1,0.2,0.3,0.2,0.5c0,0.2,0,0.3-0.1,0.3c-0.3,0.1-0.5,0.1-0.6,0.2c-0.1,0.1-0.2,0.1-0.2,0.2
		c0,0,0,0.2-0.1,0.3c0,0.2,0,0.3,0,0.4C83.3,119.9,83.4,120,83.4,120L83.4,120z M99.8,116.6c0.3,0,0.5,0,0.8,0
		c0.2,0,0.4,0.1,0.6,0.2c0.2,0.1,0.4,0.2,0.4,0.2c0,0,0.1,0.1,0.1,0.1c0,0.1,0,0.2-0.1,0.3c-0.1,0.1-0.2,0.3-0.3,0.6
		c-0.1,0.3-0.3,0.6-0.5,0.9c-0.2,0.3-0.3,0.5-0.4,0.5c0,0-0.1,0-0.1,0c-0.2,0-0.4-0.1-0.5-0.2c-0.1-0.1-0.3-0.2-0.4-0.2
		c-0.2,0-0.4,0-0.7,0.1c-0.3,0.1-0.6,0.2-1,0.4c-0.1,0-0.1,0-0.2,0c-0.1,0-0.3-0.1-0.6-0.4c-0.2-0.3-0.5-0.6-0.6-0.9
		c-0.2-0.3-0.2-0.5-0.2-0.6c0-0.1,0.1-0.2,0.2-0.2c0.1-0.1,0.4-0.1,0.9-0.3c0.5-0.1,0.8-0.3,0.8-0.6c0-0.1-0.1-0.2-0.2-0.2
		c-0.2,0-0.6,0.1-1.1,0.2c-0.1,0-0.1,0-0.1,0c-0.1,0-0.2-0.1-0.3-0.3c-0.1-0.2-0.2-0.3-0.2-0.4c0-0.1,0-0.1,0.1-0.1
		c0.1,0,0.3-0.1,0.6-0.2c0.4-0.1,0.7-0.2,1.1-0.3c0.1,0,0.2-0.4,0.2-1c0-0.4,0.1-0.6,0.1-0.7c0-0.1,0.1-0.2,0.2-0.2
		c0.1,0,0.2,0,0.3,0c0.1,0,0.1,0.1,0.1,0.2c0,0.1,0,0.3-0.1,0.6c-0.1,0.3-0.1,0.5-0.1,0.7c0,0.1,0.1,0.2,0.2,0.2c0,0,0.2,0,0.6-0.1
		c0.4-0.1,0.6-0.1,0.7-0.2c0.1,0,0.1-0.1,0.2-0.1c0.1,0,0.2,0.1,0.3,0.3c0.1,0.2,0.2,0.4,0.2,0.5c0,0.1,0,0.2-0.1,0.2
		c-0.1,0-0.1,0.1-0.2,0.1c-0.1,0-0.3,0-0.7,0c-0.3,0-0.6,0-0.8,0.1l-0.4,0.2c-0.1,0-0.1,0.1-0.1,0.3c0,0.1,0.1,0.1,0.2,0.1
		C99.2,116.7,99.5,116.6,99.8,116.6L99.8,116.6z M100.2,117.7c0-0.1,0-0.2-0.1-0.3c0-0.1-0.1-0.2-0.2-0.2c-0.1,0-0.1,0-0.2,0.1
		c-0.1,0-0.2,0.2-0.2,0.6c-0.1,0.3-0.1,0.5-0.1,0.6c0,0.2,0.1,0.3,0.3,0.3c0.2,0,0.3-0.1,0.4-0.4
		C100.2,118.1,100.2,117.9,100.2,117.7L100.2,117.7z M98.7,117.9c0-0.1,0-0.2,0-0.2c0-0.1-0.1-0.1-0.1-0.1c0,0-0.1,0-0.2,0.1
		c-0.1,0.1-0.2,0.2-0.2,0.3c0,0.2,0,0.4,0.1,0.5c0,0.1,0.1,0.2,0.2,0.2c0.1,0,0.2-0.1,0.2-0.3C98.7,118.2,98.7,118,98.7,117.9
		L98.7,117.9z M97.6,118.7c0-0.1,0-0.3-0.1-0.4c-0.1-0.2-0.2-0.2-0.3-0.2c-0.1,0-0.1,0-0.2,0.1c-0.1,0-0.1,0.1-0.1,0.2
		c0,0.1,0,0.2,0.1,0.4c0.1,0.1,0.2,0.2,0.3,0.2C97.5,118.9,97.6,118.8,97.6,118.7L97.6,118.7z M95,114.8c0.1,0,0.3,0.1,0.4,0.3
		c0.2,0.2,0.3,0.3,0.3,0.4c0,0.1-0.2,0.4-0.5,0.6c-0.3,0.3-0.6,0.5-0.8,0.7c-0.2,0.2-0.4,0.3-0.5,0.4c-0.1,0.1-0.2,0.1-0.2,0.1
		c0,0-0.1-0.1-0.1-0.1c0-0.1,0-0.3,0.1-0.5c0.1-0.2,0.3-0.6,0.6-1c0.3-0.5,0.5-0.7,0.5-0.8C94.9,114.8,95,114.8,95,114.8L95,114.8z
		 M95.1,116.8c0.1,0,0.2,0.1,0.3,0.2c0.1,0.1,0.2,0.3,0.2,0.4c0,0.1-0.2,0.4-0.5,0.7c-0.3,0.3-0.5,0.6-0.7,0.7
		c-0.1,0.1-0.2,0.3-0.2,0.4c0,0.1,0,0.2,0,0.2c0,0,0.1,0.1,0.3,0.2c0.1,0.1,0.3,0.1,0.4,0.2c0.1,0,0.1,0.1,0.1,0.2
		c0,0.1,0,0.3-0.1,0.5c-0.1,0.2-0.2,0.5-0.2,0.9c0,0.4-0.1,0.7-0.1,1c0,0.3,0,0.4,0,0.5c0,0.1,0,0.2,0,0.2c0,0.3-0.1,0.4-0.3,0.4
		c-0.2,0-0.3,0-0.4-0.1c0-0.1-0.1-0.6-0.1-1.5c0-0.2,0-0.4,0-0.5c0-0.1,0-0.3,0-0.4c0-0.1,0-0.3-0.1-0.4c0-0.1-0.1-0.2-0.2-0.2
		c-0.1,0-0.2,0-0.2,0.1c-0.2,0.3-0.5,0.4-0.9,0.6c-0.3,0.1-0.5,0.2-0.6,0.2c-0.1,0-0.1,0-0.1-0.1c0-0.1,0.1-0.2,0.2-0.4
		c0.1-0.2,0.3-0.5,0.7-0.9c0.4-0.4,0.6-0.8,0.8-1c0.2-0.3,0.4-0.6,0.6-1c0.2-0.4,0.4-0.7,0.5-0.8C95,116.9,95.1,116.8,95.1,116.8
		L95.1,116.8z M99.6,120.5C99.6,120.6,99.7,120.6,99.6,120.5c0.7,0.7,1.2,1.2,1.5,1.8c0.4,0.5,0.6,0.9,0.6,1.2c0,0.1,0,0.1-0.1,0.1
		c0,0-0.2,0-0.3,0.1c-0.2,0-0.4,0-0.7,0c-0.3,0-0.5,0-0.8,0c-0.2,0-0.5,0-0.8,0l-0.5,0c-0.1,0-0.2,0-0.4-0.1c-0.2,0-0.3-0.1-0.3-0.1
		c-0.1-0.1-0.1-0.2-0.2-0.3c-0.1-0.2-0.2-0.3-0.3-0.5c-0.1-0.2-0.1-0.4-0.1-0.6c0-0.2-0.1-0.4-0.1-0.5c-0.1-0.1-0.1-0.2-0.2-0.2
		c-0.1,0-0.2,0.2-0.3,0.6c-0.2,0.4-0.3,0.7-0.3,0.8c0,0.2-0.1,0.2-0.2,0.2c-0.1,0-0.3-0.1-0.5-0.1c-0.3-0.1-0.4-0.2-0.4-0.3
		c0-0.1,0.1-0.3,0.3-0.6c0.2-0.3,0.5-0.6,0.9-0.9c0,0,0.1-0.1,0.1-0.2c0-0.1,0-0.2-0.1-0.3c0-0.1-0.1-0.2-0.1-0.2
		c0-0.1,0.1-0.1,0.3-0.1c0.2,0,0.4-0.1,0.5-0.1c0.2-0.1,0.5-0.1,0.8-0.2c0.1,0,0.2,0,0.3-0.1c0.1,0,0.2-0.1,0.5-0.1
		c0.2,0,0.4,0,0.6,0c0.2,0,0.3,0,0.4,0.1c0.1,0,0.2,0.1,0.2,0.2c0.1,0.1,0.1,0.2,0.1,0.3C100,120.3,99.9,120.4,99.6,120.5
		C99.7,120.5,99.6,120.5,99.6,120.5L99.6,120.5z M98.9,121.1c0.1,0,0.3,0,0.4,0c0.1,0,0.2,0,0.2,0c0,0,0,0,0-0.1
		c0,0-0.1-0.1-0.1-0.2c-0.1-0.1-0.2-0.2-0.3-0.2c-0.1,0-0.3,0-0.5,0.1c-0.2,0.1-0.3,0.1-0.3,0.2c0,0.1,0,0.1,0.1,0.2
		C98.5,121.1,98.6,121.1,98.9,121.1L98.9,121.1z M99.4,122.8c0.3,0,0.6,0,0.7-0.1c0.1-0.1,0.2-0.2,0.2-0.4c0-0.2-0.1-0.4-0.2-0.6
		c-0.1-0.2-0.2-0.3-0.3-0.3c0,0-0.1,0-0.1,0c-0.2,0.2-0.4,0.4-0.5,0.4c-0.1,0.1-0.2,0.1-0.3,0.1l-0.3,0.1c-0.2,0-0.4-0.4-0.7-1.1
		c0-0.1-0.1-0.2-0.2-0.2c-0.1,0-0.1,0-0.2,0c0,0-0.1,0.1-0.1,0.2c0,0.1,0,0.3,0,0.5c0,0.4,0.1,0.8,0.3,1
		C98.2,122.7,98.7,122.8,99.4,122.8L99.4,122.8z M103.2,121.5c0,0.1,0,0.2-0.1,0.3c0,0.1-0.1,0.1-0.2,0.1c-0.2,0-0.6-0.2-1.2-0.6
		c-0.6-0.4-0.9-0.7-0.9-0.8c0,0,0-0.1,0.1-0.1c0,0,0.2,0,0.5,0c0.3,0,0.5,0,0.8,0.1c0.3,0.1,0.5,0.1,0.5,0.1c0.1,0,0.2,0,0.2,0.1
		c0,0,0.1,0.2,0.1,0.3C103.2,121.3,103.2,121.4,103.2,121.5L103.2,121.5z M112.7,116c0,0.1,0,0.1-0.1,0.1c0,0-0.1,0.2-0.2,0.3
		c-0.1,0.2-0.2,0.4-0.2,0.6c-0.1,0.2-0.2,0.5-0.3,0.8c-0.1,0.3-0.2,0.5-0.2,0.5c0,0-0.1,0.1-0.1,0.1c-0.1,0-0.1,0-0.2-0.1
		c-0.1-0.1-0.2-0.1-0.4-0.2c-0.2-0.1-0.3-0.1-0.4-0.1c-0.1,0-0.4,0.1-0.9,0.2c-0.5,0.1-0.8,0.2-0.9,0.3c-0.1,0-0.1,0-0.2,0
		c-0.1,0-0.2-0.1-0.4-0.4c-0.2-0.2-0.4-0.7-0.6-1.3c0-0.1-0.1-0.1-0.1-0.1c0,0,0,0-0.1,0.1c-0.3,1-0.7,1.9-1.2,2.9
		c-0.3,0.6-0.4,1-0.4,1.3l0,0.3c0,0.1,0,0.3-0.1,0.4c-0.1,0.1-0.3,0.3-0.6,0.5c-0.3,0.2-0.6,0.4-0.9,0.5c-0.3,0.1-0.5,0.2-0.6,0.2
		c-0.1,0-0.1,0-0.1,0c0-0.1,0.1-0.2,0.4-0.6c0.3-0.3,0.5-0.6,0.7-0.8c0.2-0.2,0.4-0.5,0.7-1c0.3-0.5,0.6-1.1,0.9-1.8
		c0.3-0.8,0.6-1.5,0.7-2.1c0.1-0.6,0.3-1.3,0.3-2.1c0-0.2,0.1-0.4,0.1-0.4c0-0.1,0.1-0.1,0.2-0.1c0.1,0,0.2,0,0.3,0.1
		c0.1,0.1,0.2,0.1,0.3,0.1c0.1,0,0.3,0,0.6-0.1c0.3-0.1,0.6-0.1,0.8-0.2c0.2-0.1,0.5-0.1,0.8-0.2c0.3-0.1,0.5-0.1,0.6-0.1
		c0.1-0.1,0.2-0.1,0.2-0.1c0.1,0,0.2,0.1,0.2,0.2c0.1,0.1,0.1,0.3,0.2,0.4c0.1,0.1,0.1,0.2,0.1,0.3c0,0.1-0.1,0.2-0.2,0.2l-0.2,0
		c-0.4,0-0.8,0.1-1.2,0.3c-0.2,0.1-0.3,0.1-0.4,0.1c-0.1,0-0.2,0-0.3,0c-0.1,0-0.2,0-0.3,0c-0.1,0-0.2,0-0.3,0.1
		c-0.1,0.1-0.3,0.1-0.6,0.2c-0.1,0-0.2,0.1-0.3,0.2c-0.1,0.1-0.1,0.2-0.1,0.3c0,0.1,0.1,0.1,0.2,0.1c0.1,0,0.2,0,0.3-0.1
		c0.3-0.1,0.8-0.2,1.4-0.4c0.7-0.1,1.2-0.2,1.5-0.2c0.5,0,0.9,0.1,1.1,0.3c0.1,0.1,0.2,0.1,0.3,0.2C112.6,115.9,112.7,116,112.7,116
		L112.7,116z M110.9,117.8C110.9,117.8,111,117.8,110.9,117.8c0.1-0.1,0.1-0.2,0.2-0.4c0.1-0.2,0.1-0.5,0.1-0.8
		c0-0.3-0.1-0.5-0.2-0.5c-0.1-0.1-0.3-0.1-0.4-0.1c-0.2,0-0.4,0-0.6,0.1c-0.2,0-0.4,0.1-0.6,0.2c-0.2,0.1-0.4,0.2-0.5,0.3
		c-0.2,0.1-0.3,0.1-0.3,0.2c0,0.1,0,0.1,0,0.3c0,0.4,0,0.6,0.1,0.7c0.1,0.1,0.1,0.1,0.2,0.1c0.1,0,0.2,0,0.3,0
		c0.7-0.2,1.1-0.3,1.3-0.3c0.1,0,0.2,0.1,0.2,0.2C110.8,117.8,110.9,117.8,110.9,117.8L110.9,117.8z M110.3,116.4
		c0.1,0,0.1,0.1,0.1,0.3c0,0.3-0.1,0.4-0.4,0.5c-0.3,0.1-0.5,0.1-0.7,0.1c-0.2,0-0.3-0.1-0.4-0.2c-0.1-0.1-0.1-0.2-0.1-0.3
		c0-0.1,0.1-0.1,0.2-0.1c0.5-0.1,0.8-0.2,0.9-0.3C110.2,116.5,110.3,116.4,110.3,116.4L110.3,116.4z M113.3,120.5
		c0.1,0,0.2,0,0.2,0.1c0.1,0.1,0.2,0.3,0.4,0.6c0.1,0.1,0.1,0.1,0.1,0.2c0,0.2-0.1,0.2-0.2,0.2c-0.1,0-0.1,0-0.2,0
		c-0.4-0.2-0.9-0.3-1.5-0.3c-0.6,0-0.9,0-1,0c-0.1,0-0.2,0.1-0.2,0.2l0,0.8c0,0.6,0,1-0.1,1.3c-0.1,0.3-0.1,0.5-0.2,0.7
		c0,0.2-0.1,0.3-0.3,0.3c-0.2,0-0.6-0.1-1.1-0.2c-0.5-0.2-0.9-0.4-1.2-0.6c-0.3-0.2-0.5-0.4-0.5-0.5c0,0,0-0.1,0.1-0.1
		c0.1,0,0.2,0,0.3,0.1c0.1,0,0.4,0.1,0.7,0.2c0.3,0.1,0.6,0.1,0.8,0.1c0.2,0,0.3,0,0.4-0.1c0.1-0.1,0.2-0.1,0.2-0.2
		c0-0.1,0-0.3,0.1-0.4c0-0.2,0-0.4,0-0.7c0-0.3,0-0.4,0-0.5c0-0.1-0.1-0.1-0.1-0.1c-0.1,0-0.1,0-0.2,0c-0.5,0.1-1,0.2-1.6,0.2
		c-0.2,0-0.4,0.1-0.7,0.1c-0.3,0.1-0.5,0.2-0.8,0.3c-0.1,0-0.2,0.1-0.2,0.1c-0.1,0-0.1-0.1-0.2-0.2c-0.1-0.2-0.1-0.3-0.1-0.3
		c0-0.1,0.1-0.1,0.2-0.1c0.1,0,0.3,0,0.5-0.1c0.2,0,0.4-0.1,0.6-0.2c0.5-0.2,1.1-0.4,2-0.6c0.2,0,0.2-0.1,0.2-0.2
		c0-0.1,0-0.2-0.1-0.3c-0.1-0.1-0.1-0.2-0.1-0.2c0-0.1,0-0.1,0.1-0.1c0.1,0,0.3-0.1,0.5-0.1c0.1,0,0.3-0.1,0.4-0.2
		c0.1-0.2,0.2-0.3,0.2-0.4c0-0.1-0.1-0.2-0.2-0.2c-0.1,0-0.5,0.1-1.1,0.4c-0.6,0.3-1.1,0.5-1.4,0.8c-0.1,0.1-0.2,0.1-0.2,0.1
		c-0.1,0-0.2-0.1-0.4-0.3c-0.2-0.2-0.2-0.3-0.2-0.4c0-0.1,0-0.1,0.1-0.1c0,0,0.1,0,0.1,0c0,0,0.1,0,0.1,0c0.1,0,0.2,0,0.5-0.1
		c0.3-0.1,0.7-0.2,1.4-0.4c0.6-0.2,1-0.3,1.2-0.3c0.1,0,0.2,0,0.4,0c0.3,0,0.6,0.1,0.8,0.2c0.2,0.2,0.4,0.3,0.4,0.4
		c0,0.1-0.1,0.2-0.3,0.4c-0.2,0.2-0.4,0.3-0.7,0.4c-0.1,0.1-0.2,0.1-0.2,0.2c0,0.1,0,0.2,0,0.2c0,0,0.1,0.1,0.2,0.1l0.9,0
		c0.3,0,0.5,0,0.7,0c0.2,0,0.4,0,0.4,0H113.3L113.3,120.5z M121.7,116.3c0,0.1,0.1,0.1,0.3,0.1c0.2,0,0.4,0,0.7,0.1
		c0.3,0,0.5,0.1,0.6,0.2c0.1,0.1,0.4,0.2,0.8,0.5c0.4,0.3,0.6,0.5,0.8,0.6c0.1,0.1,0.2,0.2,0.3,0.3c0.1,0.1,0.1,0.2,0.1,0.3
		c0,0.1-0.1,0.1-0.3,0.1c-0.2,0-0.3,0-0.5,0.1c-0.2,0-0.4,0.1-0.7,0.1l-0.7,0c-0.1,0-0.2,0-0.3,0.1c-0.4,0.3-0.8,0.5-1.1,0.5
		c-0.3,0.1-0.4,0.2-0.4,0.3c0,0,0,0.1,0.1,0.1c0,0.1,0.1,0.1,0.1,0.2c0,0.1,0,0.2,0.1,0.2c0,0,0.1,0,0.2,0c0.6-0.1,1.2-0.1,1.6-0.1
		c0.4,0,0.7,0,0.8,0c0.1,0,0.1,0.1,0.2,0.2c0.1,0.1,0.1,0.3,0.2,0.5c0,0.2,0.1,0.3,0.1,0.4c0,0.1-0.1,0.2-0.2,0.2
		c-0.1,0-0.2,0-0.2-0.1c-0.3-0.1-0.7-0.2-1.3-0.2c-0.6,0-0.9,0-1,0.1c-0.1,0-0.2,0.2-0.2,0.3c-0.1,0.2-0.1,0.5-0.1,1
		c0,0.5-0.1,0.9-0.1,1.3c-0.1,0.4-0.2,0.7-0.2,0.8c-0.1,0.1-0.2,0.2-0.2,0.2c-0.1,0-0.2,0-0.3-0.1c-0.1,0-0.3-0.1-0.7-0.2
		c-0.4-0.1-0.7-0.2-1-0.4c-0.3-0.2-0.5-0.3-0.5-0.4c0-0.1,0.1-0.1,0.2,0c0.2,0,0.3,0,0.6,0c0.2,0,0.4,0,0.6,0c0.2,0,0.4-0.1,0.4-0.2
		c0.1-0.1,0.1-0.3,0.2-0.6c0-0.3,0.1-0.6,0.1-1c0-0.2,0-0.3,0-0.4c0,0-0.1-0.1-0.1-0.1c-0.1,0-0.4,0.1-1.1,0.2
		c-0.7,0.1-1.2,0.2-1.5,0.3c-0.3,0.1-0.5,0.1-0.6,0.2c-0.1,0.1-0.2,0.1-0.3,0.1c-0.1,0-0.1,0-0.1-0.2c0-0.1,0-0.2-0.1-0.2
		c0,0,0-0.1,0-0.1c0-0.1,0.1-0.2,0.3-0.2c0.4-0.1,0.8-0.2,1.2-0.4c0.4-0.2,1.1-0.3,2-0.5c0.1,0,0.2-0.1,0.2-0.3c0-0.1,0-0.2-0.1-0.3
		c-0.1-0.1-0.1-0.1-0.1-0.2c0-0.1,0.1-0.2,0.3-0.2c0.1,0,0.2,0,0.3-0.1c0.1,0,0.2-0.1,0.3-0.2c0.1-0.1,0.2-0.2,0.2-0.3
		c0-0.1,0.1-0.2,0.1-0.3c0-0.1-0.1-0.2-0.2-0.2c-0.3,0-0.5,0.1-0.7,0.3c-0.1,0.1-0.2,0.2-0.2,0.2c-0.1,0.1-0.3,0.1-0.5,0.2
		c-0.2,0.1-0.4,0.1-0.5,0.2c-0.1,0.1-0.3,0.2-0.4,0.3c-0.1,0.1-0.2,0.1-0.2,0.1c-0.1,0-0.2-0.1-0.3-0.3c-0.1-0.2-0.2-0.3-0.2-0.4
		c0-0.1,0.1-0.1,0.3-0.2c0.6-0.1,1.1-0.3,1.5-0.4c0.6-0.2,1.1-0.4,1.6-0.4c0.2,0,0.4,0,0.5,0.1c0.1,0.1,0.3,0.2,0.5,0.3
		c0.2,0.1,0.3,0.1,0.3,0.1c0.2,0,0.4-0.1,0.6-0.3c0.2-0.2,0.4-0.4,0.4-0.6c0-0.2-0.1-0.4-0.3-0.5c-0.2-0.1-0.4-0.2-0.6-0.2
		c-0.2,0-0.5,0.1-1,0.2c-0.5,0.1-0.9,0.2-1.1,0.3c-0.2,0.1-0.4,0.1-0.8,0.2c-0.3,0-0.6,0.1-0.9,0.2c-0.3,0.1-0.6,0.2-0.9,0.2
		c-0.3,0-0.5,0.1-0.6,0.1c-0.1,0-0.2,0.1-0.2,0.1c-0.1,0-0.1,0-0.1-0.1c0-0.1-0.1-0.1-0.1-0.2c0-0.1,0-0.1,0-0.1c0,0,0.1,0,0.2,0
		c0.1,0,0.3-0.1,0.5-0.2c0.9-0.4,1.7-0.7,2.3-0.9c0.3-0.1,0.6-0.3,0.9-0.8c0.3-0.5,0.7-1,1.1-1.7c0.1-0.2,0.2-0.3,0.3-0.3
		c0.1,0,0.2,0.1,0.5,0.3c0.2,0.2,0.3,0.3,0.3,0.4c0,0.1-0.1,0.1-0.2,0.2c-0.1,0.1-0.2,0.2-0.4,0.3c-0.1,0.1-0.3,0.3-0.6,0.6
		c-0.3,0.3-0.4,0.5-0.4,0.5C121.7,116.3,121.7,116.3,121.7,116.3L121.7,116.3z M120.6,114.2c0.1,0,0.1,0,0.1,0.1
		c0,0.1,0,0.1-0.1,0.2c-0.2,0.4-0.4,0.7-0.4,0.8c0,0.2-0.1,0.2-0.2,0.2c-0.2,0-0.4-0.1-0.6-0.3c-0.2-0.2-0.3-0.4-0.3-0.5
		c0-0.1,0.1-0.1,0.1-0.1c0.3-0.1,0.5-0.1,0.6-0.2c0.1-0.1,0.2-0.1,0.2-0.1c0,0,0.1,0,0.2,0c0.1,0,0.2,0,0.2,0
		C120.5,114.3,120.6,114.2,120.6,114.2L120.6,114.2z M119,116.2c0,0.1-0.1,0.1-0.2,0.2c-0.1,0-0.2,0-0.3,0c-0.1,0-0.2,0-0.4,0
		c-0.2,0-0.3,0-0.4-0.1c-0.1,0-0.2-0.1-0.2-0.3c0-0.2-0.1-0.3-0.1-0.5c0-0.2,0-0.3,0.1-0.4c0.1-0.1,0.2-0.1,0.3-0.1
		c0.1,0,0.2,0,0.3,0.1c0.1,0.1,0.2,0.2,0.4,0.4C118.8,115.8,119,116.1,119,116.2L119,116.2z M116.5,118.9c0,0.2,0,0.4,0,0.5
		c0,0.1,0,0.2,0,0.2c0,0.1-0.1,0.2-0.2,0.2c-0.1,0-0.3-0.1-0.7-0.2c-0.3-0.1-0.5-0.2-0.5-0.3c0-0.1,0.1-0.2,0.2-0.4
		c0.1-0.2,0.3-0.3,0.5-0.4c0.2-0.1,0.4-0.2,0.4-0.2c0.1,0,0.1,0,0.1,0.1c0,0.1,0,0.1,0,0.2C116.5,118.6,116.5,118.7,116.5,118.9
		L116.5,118.9z M144.4,122.5c0,0.1-0.1,0.1-0.3,0.2c-0.2,0.1-0.6,0.1-1.1,0.1c-0.7,0-1.2,0-1.4-0.1c-0.3-0.1-0.4-0.2-0.5-0.4
		c0-0.2-0.1-0.4-0.2-0.5c-0.1-0.1-0.3-0.4-0.6-0.6c-0.3-0.3-0.6-0.5-0.9-0.6c-0.2-0.1-0.4-0.2-0.5-0.2c-0.1,0-0.1,0.1-0.1,0.2
		c0,0.1,0,0.4,0,0.8c0,0.4,0,0.9,0.1,1.4c0,0.5,0.1,0.9,0.1,1c0,0.1,0.1,0.2,0.1,0.3c0,0.2-0.1,0.3-0.2,0.3c-0.1,0-0.3-0.1-0.5-0.2
		c-0.2-0.1-0.4-0.2-0.4-0.2c-0.5-0.2-1-0.5-1.4-0.8c-0.4-0.3-0.6-0.5-0.6-0.6c0,0,0,0,0.1,0c0,0,0.1,0,0.1,0
		c0.5,0.2,0.9,0.3,1.3,0.3c0.1,0,0.3,0,0.3-0.1c0.1-0.1,0.1-0.2,0.1-0.3c0-0.1,0-0.4,0-0.9c0-0.5,0-1-0.1-1.5c0-0.5-0.1-1.1-0.1-2
		c0-0.1,0-0.2,0-0.2c0,0-0.1,0-0.1,0c-0.1,0-0.4,0-0.9,0.1c-0.5,0.1-0.9,0.2-1.2,0.3c-0.1,0-0.1,0-0.2,0c0,0-0.1,0-0.1-0.1
		c-0.1-0.1-0.1-0.2-0.2-0.5c-0.1-0.2-0.1-0.4-0.1-0.4c0-0.1,0.1-0.1,0.3-0.2c0.2,0,0.5-0.1,0.9-0.1c0.4,0,0.8-0.1,1.1-0.2
		c0.3-0.1,0.5-0.1,0.6-0.2c0.1,0,0.2-0.1,0.2-0.3l0.1-0.7c0-0.3,0.1-0.5,0.1-0.8c0-0.2,0-0.5,0.1-0.9c0-0.4,0.1-0.6,0.1-0.7
		c0-0.1,0.1-0.1,0.1-0.1c0.1,0,0.2,0,0.5,0.1c0.3,0.1,0.4,0.2,0.4,0.2c0,0.1,0,0.1-0.1,0.2c-0.2,0.2-0.3,0.6-0.3,1.1l0,0.7v0.5
		c0,0.1,0,0.2,0.1,0.2c0.1,0,0.2,0,0.5-0.1c0.3-0.1,0.5-0.1,0.6-0.1s0.2,0.1,0.2,0.2c0.1,0.2,0.2,0.4,0.3,0.5
		c0.1,0.1,0.1,0.2,0.1,0.2c0,0.1-0.1,0.2-0.3,0.2c-0.1,0-0.3,0-0.5,0.1c-0.2,0.1-0.4,0.1-0.6,0.2c-0.2,0-0.3,0.1-0.4,0.1
		c0,0-0.1,0.1-0.1,0.3c0,0.1,0,0.3,0,0.5c0,0.2,0,0.3,0.1,0.4c0,0.1,0.1,0.1,0.2,0.2c0.1,0,0.1,0.1,0.2,0.1c0,0,0.1,0,0.2-0.1
		c0.1,0,0.3-0.2,0.7-0.5c0.4-0.3,0.7-0.5,1-0.8c0.1-0.1,0.2-0.1,0.3-0.1c0.1,0,0.2,0.1,0.3,0.2c0.1,0.1,0.1,0.2,0.1,0.3
		c0,0.1-0.1,0.1-0.2,0.2c-0.1,0-0.3,0.1-0.5,0.3c-0.2,0.2-0.6,0.4-1.2,0.7c-0.1,0.1-0.2,0.1-0.2,0.1c0,0,0.1,0.1,0.2,0.2
		c0.1,0.1,0.3,0.3,0.6,0.6c0.3,0.3,0.6,0.6,0.9,0.8c0.3,0.2,0.7,0.4,1.2,0.5C143.7,122,144.4,122.3,144.4,122.5L144.4,122.5z
		 M140.9,114.5c0.1,0,0.1,0,0.2,0.1c0.1,0.1,0.2,0.2,0.5,0.3c0.3,0.1,0.4,0.3,0.6,0.4c0.1,0.2,0.2,0.3,0.2,0.4
		c0,0.2-0.1,0.3-0.3,0.3c-0.1,0-0.3,0-0.6-0.1c-0.3,0-0.5-0.1-0.5-0.1c-0.1,0-0.1-0.1-0.2-0.2c0-0.1-0.1-0.3-0.1-0.4
		c0-0.2,0-0.3,0.1-0.5C140.7,114.6,140.8,114.5,140.9,114.5L140.9,114.5z M135.4,118.5c0,0,0.1,0,0.2,0.1c0.1,0.1,0.2,0.2,0.5,0.3
		c0.5,0.3,0.8,0.5,0.8,0.7c0,0.2-0.3,0.3-0.8,0.3c-0.1,0-0.3,0-0.5-0.1c-0.2,0-0.3-0.1-0.4-0.3c0-0.1,0-0.3,0-0.4
		c0-0.2,0-0.3,0.1-0.4C135.3,118.6,135.4,118.5,135.4,118.5L135.4,118.5z M137.4,120c0,0.1-0.1,0.2-0.2,0.3
		c-0.1,0.1-0.3,0.3-0.4,0.4c-0.1,0.1-0.3,0.3-0.4,0.4c-0.3,0.4-0.7,0.8-1.2,1.1c-0.1,0-0.1,0.1-0.2,0.2c-0.1,0.1-0.2,0.2-0.3,0.3
		c-0.1,0.1-0.1,0.1-0.2,0.1c-0.1,0-0.2-0.1-0.4-0.4c-0.2-0.2-0.3-0.4-0.3-0.5c0-0.1,0.1-0.2,0.3-0.3c0.2-0.1,0.6-0.3,1.3-0.7
		c0.6-0.4,1.2-0.8,1.8-1.1C137.2,119.9,137.3,119.9,137.4,120C137.4,119.9,137.4,119.9,137.4,120L137.4,120z M150.4,121.6
		c0,0,0,0.1,0.1,0.1c0,0,0.2,0.2,0.6,0.4c0.4,0.2,0.8,0.4,1.2,0.6c0.4,0.2,0.7,0.3,0.9,0.3c0.5,0.1,1.2,0.3,1.9,0.6
		c0.8,0.3,1.2,0.5,1.2,0.6c0,0.1-0.1,0.1-0.3,0.2c-0.2,0.1-0.6,0.1-1.1,0.1c-0.5,0-0.9,0-1.2-0.1c-0.3-0.1-0.7-0.1-1.1-0.1
		c-0.2,0-0.3,0-0.3-0.1c-0.1-0.1-0.1-0.2-0.1-0.3c-0.1-0.4-0.2-0.6-0.4-0.9c-0.2-0.2-0.7-0.4-1.3-0.6c-0.3-0.1-0.5-0.2-0.7-0.3
		c-0.2-0.2-0.5-0.3-0.9-0.4c-0.4-0.1-0.7-0.2-0.8-0.2c-0.1,0-0.2,0.1-0.3,0.3c-0.1,0.2-0.1,0.3-0.2,0.4c0,0.1-0.1,0.2-0.1,0.2
		c-0.1,0.1-0.2,0.2-0.4,0.3c-0.2,0.1-0.5,0.2-0.9,0.3c-0.3,0.1-0.6,0.1-0.8,0.1c-0.2,0-0.4,0-0.5,0c-0.1,0-0.1-0.1-0.1-0.1
		c0-0.1,0.2-0.2,0.5-0.3c0.3-0.1,0.7-0.2,1-0.4c0.4-0.2,0.7-0.6,1.1-1.3c0.4-0.6,0.5-1,0.5-1.1c0,0,0-0.1-0.1-0.1
		c-0.1,0-0.1-0.1-0.2-0.1c-0.1,0-0.2,0-0.4,0.1c-0.2,0.1-0.5,0.1-0.9,0.1c-0.4,0-0.6,0.1-0.7,0.2c-0.1,0.1-0.2,0.2-0.3,0.2
		c-0.1,0-0.2-0.1-0.3-0.2c-0.1-0.2-0.1-0.3-0.1-0.4c0-0.1,0.1-0.2,0.2-0.2c0.6-0.1,1.4-0.3,2.5-0.6c1.1-0.3,2.1-0.5,3-0.6
		c0.1,0,0.1,0,0.1-0.1c0-0.1-0.1-0.2-0.4-0.4c-0.3-0.2-0.5-0.3-0.5-0.3c-0.1,0-0.2,0-0.4,0.1c-0.2,0.1-0.4,0.2-0.5,0.3
		c-0.1,0.1-0.2,0.1-0.4,0.1c-0.3,0-0.4-0.2-0.5-0.6c0-0.2-0.1-0.4-0.1-0.7c-0.1-0.6-0.2-1.2-0.2-1.9c0-0.5,0.2-0.7,0.5-0.7
		c0.2,0,0.4,0,0.7-0.1c0.8-0.2,1.5-0.3,2-0.3c0.3,0,0.6,0,0.8,0.1c0.2,0.1,0.4,0.2,0.4,0.3c0,0,0,0.1-0.1,0.2
		c-0.1,0.1-0.1,0.3-0.1,0.5c0,0.2,0,0.4-0.1,0.7l-0.1,1.1c-0.1,0.4-0.1,0.8-0.1,1c0,0.2,0,0.4,0,0.4c0,0.1,0.1,0.1,0.1,0.1
		c0.2,0,0.4,0,0.8-0.1c0.1,0,0.2,0,0.3,0c0.1,0,0.2,0,0.3,0.2c0.1,0.1,0.1,0.2,0.1,0.4c0,0.3,0,0.4-0.1,0.5
		c-0.1,0.1-0.2,0.1-0.4,0.1c-0.2,0-0.5,0-1,0.1c-0.5,0.1-0.8,0.1-1.2,0.1c-0.1,0-0.2,0.1-0.2,0.2c0,0,0,0.1,0,0.1
		c0,0.1,0,0.1,0.1,0.1c0,0,0.1,0,0.3,0c0.1,0,0.3,0,0.4,0c0.1,0,0.2,0,0.3,0c0.1,0,0.2,0.1,0.3,0.2c0.1,0.1,0.1,0.3,0.1,0.4
		c0,0.1,0,0.2-0.1,0.2c-0.1,0-0.2,0.1-0.4,0.2c-0.2,0.1-0.5,0.1-0.8,0.2c-0.1,0-0.1,0-0.2,0.1c0,0-0.1,0.1-0.1,0.3
		C150.4,121.4,150.4,121.5,150.4,121.6L150.4,121.6z M150.4,117.3c0.1,0,0.1,0,0.2-0.1c0-0.1,0.1-0.1,0.1-0.2c0-0.6,0-1,0-1.3
		c0-0.3,0-0.6,0-0.7c0-0.2,0-0.3-0.1-0.4c0-0.1-0.1-0.1-0.3-0.1c-0.1,0-0.3,0.1-0.6,0.2c-0.3,0.1-0.4,0.3-0.4,0.5c0,0,0,0.1,0.1,0.1
		c0.1,0,0.1,0,0.2,0s0.1,0,0.2,0c0.1,0,0.1-0.1,0.2-0.1c0.2,0,0.3,0.1,0.3,0.3c0,0.3-0.2,0.6-0.5,0.7c-0.1,0.1-0.3,0.1-0.4,0.2
		c-0.1,0.1-0.2,0.1-0.2,0.2c0,0,0,0.1,0,0.2c0,0.1,0.1,0.1,0.2,0.1c0.1,0,0.2,0,0.3,0c0.1,0,0.3-0.1,0.3-0.1c0.1,0,0.1,0,0.2,0.1
		c0,0,0.1,0.1,0.1,0.3C150.3,117.2,150.4,117.3,150.4,117.3L150.4,117.3z M149.5,121.1C149.5,121.1,149.5,121.1,149.5,121.1
		c0.1-0.1,0.1-0.2,0.1-0.4c0-0.2,0-0.4,0-0.6c0-0.2,0-0.3-0.1-0.5c-0.1-0.2-0.1-0.3-0.2-0.3c-0.1,0-0.2,0-0.3,0
		c-0.1,0-0.2,0.1-0.2,0.3c-0.1,0.2-0.1,0.4-0.1,0.5c0,0.1,0,0.2,0.1,0.3c0.3,0.2,0.4,0.3,0.5,0.4
		C149.4,121.1,149.4,121.1,149.5,121.1L149.5,121.1z M164.8,120.3c0,0.7,0,1.3,0.1,1.8c0.1,0.4,0.1,0.8,0.1,1.1c0,0.3,0,0.5,0.1,0.7
		c0,0.2,0.1,0.3,0.1,0.4c0,0.2-0.1,0.4-0.3,0.4c-0.2,0-0.7-0.1-1.3-0.4c-0.7-0.3-1.2-0.5-1.5-0.8c-0.3-0.3-0.5-0.5-0.5-0.6
		c0,0,0-0.1,0.1-0.1c0,0,0.1,0,0.1,0c0.8,0.3,1.5,0.5,2.1,0.5c0.1,0,0.2,0,0.3-0.1c0-0.1,0-0.2,0-0.5c0-0.3,0-0.9-0.1-1.7
		c-0.1-0.9-0.1-1.9-0.1-3.2l0-1.5l0-1.6c0-0.2,0.1-0.3,0.2-0.3c0.1,0,0.3,0.1,0.6,0.2c0.3,0.1,0.4,0.2,0.4,0.3c0,0.1,0,0.1-0.1,0.2
		c-0.1,0.2-0.2,0.6-0.2,1.3c0,0,0,0.4,0,1.2c0,0.8,0,1.4,0,1.7L164.8,120.3L164.8,120.3z M161.3,117c0,0.1-0.1,0.3-0.3,0.4
		c-0.2,0.1-0.4,0.2-0.6,0.2c-0.2,0-0.3-0.1-0.4-0.2c-0.1-0.1-0.2-0.3-0.4-0.3c-0.2-0.1-0.3-0.1-0.4-0.1c-0.1,0-0.1,0-0.2,0.1
		c0,0-0.2,0.2-0.5,0.6c-0.3,0.4-0.5,0.7-0.7,0.9c-0.1,0.2-0.2,0.4-0.2,0.6c0,0.1,0,0.1,0.1,0.1c0.1,0,0.2-0.1,0.4-0.2
		c0.7-0.4,1.3-0.6,1.7-0.6c0.2,0,0.4,0,0.6,0.1c0.2,0.1,0.3,0.2,0.3,0.3c0,0,0,0.1,0,0.1c-0.1,0.2-0.1,0.3-0.2,0.6
		c0,0.2-0.1,0.5-0.3,0.9c-0.2,0.4-0.3,0.6-0.4,0.7c-0.1,0.1-0.2,0.1-0.4,0.1c-0.2,0-0.4,0-0.8-0.1c0,0-0.1,0-0.1,0c0,0,0,0-0.1,0.1
		c0,0-0.1,0.2-0.1,0.6c-0.1,0.3-0.1,0.6-0.1,0.7c0,0.1,0.1,0.3,0.2,0.4c0.1,0.1,0.3,0.1,0.4,0.1c0.2,0,0.3,0,0.5-0.1
		c0.2-0.1,0.3-0.1,0.4-0.3c0.1-0.1,0.1-0.3,0.2-0.6c0-0.3,0.1-0.4,0.2-0.4c0.1,0,0.2,0.2,0.3,0.6c0.1,0.4,0.2,0.8,0.2,1
		c0,0.2-0.1,0.3-0.2,0.3c-0.1,0-0.3,0-0.3,0.1c-0.3,0.1-0.8,0.1-1.3,0.1c-0.3,0-0.6-0.1-0.8-0.4c-0.2-0.3-0.3-0.7-0.3-1.2
		c0-0.3,0-0.6,0.1-1.1c0.1-0.4,0.1-0.7,0.1-0.9c0-0.2,0.1-0.2,0.3-0.2c0.2,0,0.3,0,0.4,0.1c0.1,0.1,0.1,0.2,0.1,0.3c0,0,0,0,0,0.1
		c0,0,0,0,0,0c0.1,0.1,0.2,0.1,0.2,0.1c0.2,0,0.3-0.1,0.4-0.4c0.1-0.3,0.1-0.5,0.1-0.8c0-0.2-0.1-0.3-0.2-0.3
		c-0.3,0-0.7,0.2-1.2,0.6c-0.1,0.1-0.2,0.1-0.2,0.1c-0.1,0-0.1,0-0.2,0c-0.1,0-0.1,0-0.2,0c-0.1,0-0.1,0-0.1,0.1
		c0,0.1-0.2,0.2-0.6,0.5c-0.4,0.3-0.7,0.4-1,0.5c-0.3,0.1-0.5,0.1-0.6,0.1c-0.1,0-0.1,0-0.1-0.1c0,0,0.1-0.2,0.3-0.4
		c0.2-0.2,0.5-0.5,0.8-0.9c0.5-0.5,0.9-0.9,1.2-1.4c0.3-0.4,0.5-0.7,0.6-0.9c0.1-0.1,0.4-0.5,0.7-1c0.4-0.5,0.6-0.8,0.7-1
		c0.1-0.1,0.2-0.3,0.3-0.4c0.1-0.1,0.1-0.2,0.2-0.2c0.1,0,0.2,0.1,0.3,0.3c0.1,0.2,0.2,0.3,0.2,0.4c0,0.1-0.1,0.2-0.3,0.4
		c-0.2,0.2-0.3,0.3-0.3,0.3c0,0,0.1,0.1,0.2,0.2c0.1,0.1,0.3,0.1,0.6,0.2C161,116.7,161.3,116.8,161.3,117L161.3,117z M162.8,118.1
		c0,0,0,0.1,0,0.1c0,0.1-0.1,0.2-0.1,0.5c0,0.3-0.1,0.5-0.1,0.8c0,0.3-0.1,0.4-0.2,0.6c-0.1,0.1-0.2,0.2-0.3,0.2
		c-0.2,0-0.4-0.3-0.4-0.9c0-0.4,0-0.7,0-0.9l0-0.5c0-0.2,0.1-0.2,0.2-0.2c0.1,0,0.2,0,0.5,0.1c0.3,0.1,0.4,0.1,0.4,0.2
		C162.8,118,162.8,118.1,162.8,118.1L162.8,118.1z M171.2,113.7c0.1,0,0.2,0.1,0.2,0.2c0.1,0.1,0.1,0.3,0.2,0.4
		c0.1,0.2,0.2,0.3,0.2,0.4c0,0.1,0,0.3,0,0.5c0,0.2,0,0.3-0.1,0.4c-0.1,0.1-0.2,0.1-0.3,0.1c-0.2,0-0.4-0.1-0.6-0.2
		c-0.2-0.2-0.3-0.4-0.3-0.7c0-0.2,0.1-0.4,0.2-0.6C170.9,113.8,171,113.7,171.2,113.7L171.2,113.7z M172.6,116.1
		c0,0.1,0,0.2-0.1,0.3c0,0.1-0.2,0.1-0.4,0.2c-0.2,0.1-0.3,0.1-0.3,0.1c0,0,0,0.1,0.1,0.1c0.1,0.1,0.2,0.1,0.3,0.2
		c0.1,0.1,0.2,0.1,0.2,0.3c0,0.1-0.1,0.2-0.2,0.3c-0.2,0.1-0.3,0.1-0.3,0.2c-0.1,0.1-0.1,0.1-0.1,0.2c0,0.1,0.1,0.1,0.2,0.1
		c0.1,0,0.2,0,0.3,0.1c0,0.1,0.1,0.1,0.1,0.3c0,0.1-0.1,0.2-0.2,0.3c-0.1,0.1-0.3,0.2-0.7,0.3c-0.1,0-0.1,0.1-0.2,0.2
		c0,0.1,0,0.1,0,0.2c0,0.1,0,0.1,0.1,0.1c0.1,0,0.2,0,0.3-0.1c0.1-0.1,0.3-0.1,0.3-0.1c0.2,0,0.3,0.1,0.4,0.2
		c0.1,0.1,0.1,0.3,0.1,0.3c0,0.1-0.1,0.2-0.2,0.2c-0.1,0-0.4,0.1-0.9,0.2c-0.1,0-0.2,0-0.2,0.1c0,0-0.1,0.1-0.1,0.2
		c0,0.1,0,0.1,0.1,0.1c0.5,0.2,0.7,0.4,0.7,0.5c0,0.1,0,0.1-0.1,0.2c-0.1,0.1-0.1,0.1-0.2,0.1c-0.1,0-0.2,0-0.3,0
		c-0.1,0-0.2,0-0.3,0c-0.1,0-0.1,0-0.1,0.1c0,0.1,0,0.2,0.1,0.5c0,0.2,0.1,0.4,0.1,0.6c0,0.5-0.1,0.7-0.3,0.7
		c-0.1,0-0.3-0.1-0.6-0.2c-0.3-0.1-0.6-0.4-0.9-0.7c-0.1-0.1-0.1-0.1-0.1-0.1c0,0-0.1,0.1-0.2,0.2c-0.1,0.1-0.1,0.2-0.1,0.3
		c0,0.1-0.1,0.2-0.2,0.2c-0.1,0-0.2-0.1-0.5-0.2c-0.2-0.1-0.3-0.2-0.3-0.3c0-0.1,0-0.2,0.1-0.2c0-0.1,0.2-0.3,0.4-0.6
		c0.3-0.3,0.4-0.5,0.5-0.6c0.1-0.1,0.1-0.1,0.1-0.1c0,0,0-0.1-0.1-0.1c-0.1,0-0.2,0-0.4,0.1c-0.2,0.1-0.4,0.1-0.5,0.2
		c-0.1,0-0.2,0.1-0.2,0.1c-0.1,0-0.1-0.1-0.2-0.2c-0.1-0.1-0.1-0.2-0.1-0.3c0-0.1,0.1-0.1,0.2-0.2c1-0.3,1.5-0.4,1.7-0.5
		c0.2-0.1,0.5-0.2,0.8-0.3c0.1,0,0.2-0.1,0.2-0.2c0-0.2-0.1-0.2-0.2-0.2c0,0-0.2,0-0.5,0.1c-0.3,0.1-0.5,0.1-0.5,0.1
		c0,0-0.1,0.1-0.2,0.1c-0.1,0-0.1-0.1-0.2-0.2c-0.1-0.1-0.1-0.2-0.1-0.3c0-0.1,0-0.2,0.1-0.2c0.1,0,0.3-0.1,0.5-0.2
		c0.3-0.1,0.6-0.2,0.9-0.3c0.3-0.1,0.5-0.2,0.6-0.3c0.1-0.1,0.1-0.2,0.2-0.4c0.1-0.2,0.2-0.3,0.2-0.4c0-0.1,0-0.2,0-0.3
		c0-0.1,0-0.1-0.1-0.1c0,0,0,0-0.1,0.1c0,0.1-0.1,0.1-0.2,0.2c-0.1,0.1-0.2,0.1-0.2,0.2c-0.1,0.1-0.2,0.3-0.4,0.6
		c-0.1,0.1-0.1,0.2-0.2,0.2c-0.1,0.1-0.2,0.1-0.2,0.1c-0.1,0-0.1,0-0.1-0.1c0,0-0.1-0.1-0.1-0.2c0-0.1,0.1-0.2,0.2-0.4
		c0.2-0.2,0.3-0.4,0.3-0.6c0-0.1-0.1-0.1-0.2-0.1c-0.1,0-0.2,0-0.2,0c-0.1,0-0.1,0.1-0.2,0.1c-0.1,0.1-0.2,0.1-0.2,0.1
		c0,0-0.1-0.1-0.2-0.2c-0.1-0.1-0.1-0.3-0.1-0.3c0-0.1,0.1-0.1,0.2-0.1c0.3,0,0.7-0.1,1.3-0.3c0.8-0.3,1.4-0.4,1.9-0.4
		c0.2,0,0.3,0,0.4,0C172.6,116,172.6,116.1,172.6,116.1L172.6,116.1z M170.5,121.3c0-0.1,0-0.2,0-0.4c0-0.1,0-0.2-0.1-0.2
		c0,0-0.1,0-0.2,0c-0.1,0-0.2,0.1-0.4,0.1c-0.2,0-0.3,0.1-0.3,0.1c0,0,0,0.1,0,0.2c0,0.1,0,0.3-0.1,0.5c0,0.2,0,0.3,0,0.4
		c0,0.1,0.1,0.2,0.2,0.2c0.1,0.1,0.3,0.1,0.4,0.1s0.3,0,0.3-0.1c0.1,0,0.1-0.2,0.1-0.4C170.5,121.6,170.5,121.4,170.5,121.3
		L170.5,121.3z M176.9,118c0.1,0,0.1,0,0.2,0c0,0,0.1,0.1,0.3,0.4c0.1,0.2,0.2,0.4,0.3,0.4c0,0.1,0.1,0.2,0.1,0.2
		c0,0.2-0.1,0.3-0.3,0.3c0,0-0.1,0-0.1,0c-0.2,0-0.4-0.1-0.8-0.1c-0.4,0-0.6,0-0.6,0.1c0,0-0.1,0.3-0.2,0.7
		c-0.1,0.4-0.1,0.8-0.1,1.1c0,0.3,0,0.6,0,0.8c0,0.2,0,0.5,0,0.7c0,0.3,0,0.5-0.1,0.7c0,0.2-0.1,0.3-0.1,0.5c0,0.1,0,0.3,0.1,0.5
		c0,0.2,0.1,0.3,0.1,0.4c0,0.2-0.1,0.4-0.4,0.4c-0.1,0-0.2,0-0.2,0c-0.1,0-0.1-0.1-0.1-0.2c0-0.1-0.1-0.2-0.1-0.3l0-0.4
		c0-0.3,0-1-0.1-2.2c0-1.1-0.1-1.8-0.1-2c0-0.2-0.1-0.3-0.1-0.4c0-0.1-0.1-0.1-0.1-0.1c-0.1,0-0.2,0-0.3,0.1
		c-0.2,0.1-0.3,0.1-0.4,0.2c-0.1,0.1-0.2,0.1-0.2,0.2c0,0.1-0.1,0.2-0.2,0.4c-0.1,0.2-0.1,0.3-0.1,0.4l0,0.4c0,0.2-0.1,0.5-0.3,0.8
		c-0.2,0.3-0.5,0.5-0.7,0.5c-0.2,0.1-0.4,0.1-0.5,0.1c-0.1,0-0.1,0-0.1-0.1c0-0.1,0.1-0.3,0.4-0.7c0.3-0.4,0.5-0.8,0.6-1.2
		c0.1-0.4,0.2-0.9,0.3-1.4c0.1-0.5,0.1-1,0.1-1.3l0-0.7c0-0.1,0-0.2,0.1-0.2c0,0,0.1-0.1,0.2-0.1c0.5-0.1,0.9-0.2,1.2-0.3
		c0.6-0.2,1-0.3,1.3-0.3c0.1,0,0.3,0,0.3,0.1c0.1,0.1,0.1,0.2,0.1,0.3c0,0.1,0,0.2-0.1,0.3c-0.1,0.1-0.2,0.1-0.3,0.2
		c-0.1,0-0.3,0.1-0.4,0.2c-0.1,0.1-0.3,0.1-0.6,0.2c-0.4,0-0.7,0.2-0.9,0.4c-0.2,0.3-0.3,0.5-0.3,0.7c0,0.1,0,0.1,0.1,0.1
		c0,0,0.3-0.1,0.9-0.3c0.6-0.2,1-0.3,1.4-0.4C176.4,118,176.7,118,176.9,118L176.9,118z"/>
	<rect x="89.9" y="47.1" fill-rule="evenodd" clip-rule="evenodd" fill="#1D2088" width="79.4" height="2.3"/>
	<path fill-rule="evenodd" clip-rule="evenodd" fill="#E60012" d="M54.5,34.1l-3.9-1.8L50.4,32l-0.1-0.1l-0.1-0.1l-0.1-0.1l0,0l0,0
		l0,0l0,0v0l0,0l0,0l0,0l0,0l0,0l0,0l0.1,0l0.1,0l0.1,0l0.3-0.1l0.7-0.1l0.5,0h0.4l0.4,0l0.3,0l0.2,0.1l0.2,0.1l0.2,0.1l0.2,0.1
		l0.2,0.2l0.1,0.2l0.1,0.2l0.1,0.2l0.2,0.5l0.1,0.3l0.2,0.8l1.3-0.7L55.6,30l-0.1-0.5l0-0.2l0-0.1l0-0.1l0-0.1l0-0.1l0.1-0.1l0-0.1
		l0.1-0.1l0.1-0.1l0.1-0.1l0.1,0l0.1,0l0.2,0l0.2,0l0.2,0l0.4,0.1l0.2,0h0.2l0.2,0l0.2,0l0.3,0.1l0.3,0.1l0.3,0.2l0.3,0.2l0.2,0.2
		l0.2,0.2l0.1,0.3l0.1,0.2l0,0.2l0,0.2l0,0.1l0,0.1l0,0.1l0,0.1l0,0.1L59.4,31l-1.4,1.7l-0.1,0.1l-0.1,0.1l-0.1,0.1l-0.1,0.2
		l-0.1,0.2l-0.1,0.2l-0.1,0.5L57,34.7l-0.1,1.2l1.4,0.5l0.4-0.4l0.2-0.2l0.2-0.3l0.1-0.3l0.1-0.3l0-0.2l0-0.2l0-0.2l-0.1-0.2
		l-0.1-0.1l-0.1-0.3l-0.1-0.3l0-0.2l0-0.2v-0.1l0-0.1l0-0.1l0,0l0,0l0,0l0,0l0,0l0,0l0,0l0,0l0,0l0,0l0,0h0.1h0l0.1,0l1.2,0.2l0.2,0
		h0.5l0.2,0l0.1,0l0.1,0l0.1,0l0,0l0,0l0,0l0,0l0,0l0,0l0,0l0,0l0,0l0,0l0,0.1l0,0.1l0,0.1l-0.2,0.4l-0.4,0.6l-0.1,0.3L61,35
		l-0.1,0.3l-0.1,0.4l0,0.8l0,0.1l0,0.1l0,0.1l0,0l0,0l0,0l0,0l0,0l0,0l0,0h0l0,0h0l0,0h0h0h0l0,0l0,0l0.1,0l0.1,0l0.1-0.1l1.3-2.1
		l0.2-0.2l0.2-0.1l0.2-0.1l0.2,0l0.2,0l0.2,0l0.2,0l0.2,0l0.3,0.1l0.3,0.1l0.2,0.1l0.1,0l0,0l0,0l0.1,0.1l0,0.1l0,0l0,0l0,0.1l0,0.1
		l0,0.1l0,0.1l0,0.1l0,0.1l-0.1,0.2L65,35.4l-0.1,0.2l-2.6,3.8l-0.1,0.1l0,0.1l0,0.1l0,0.1l0,0l0,0l0,0l0,0l0,0l0,0l0,0l0,0l0,0
		l0.1,0l0,0l0.1,0l0.1,0l0.2,0.1l0.5,0l1.2-0.1h0.4l0.2,0l0.1,0l0.1,0l0,0l0,0l0,0l0,0l0,0l0,0l0,0l0,0l0,0l0,0l0,0v0l0,0l0,0.1
		l0,0.1L65.1,41L63,43.7l2.6,4l0.4,0.9l0.2,0.4l0.2,0.6l0.1,0.3l0,0.2l0,0.2l0,0.2l-0.1,0.1l-0.1,0.1l-0.1,0.1L66.1,51l-0.1,0.1
		l-0.1,0.1l-0.1,0l-0.1,0l-0.1,0l-0.1,0l-0.1,0l-0.1,0L65,51.1L64.8,51l-0.1-0.1l-0.2-0.2l-0.2-0.2l-3-4.6l-3,3.7L57.6,50l-0.3,0.1
		l-0.3,0.1l-0.1,0h-0.1h-0.1l-0.1,0l0,0l0,0l-0.1,0l-0.1,0l-0.1,0l0,0l0-0.1l0-0.1l0-0.1l0-0.1l0-0.1l0-0.1l1.3-3.5l1.7-3.2
		l-0.1-0.3l0-0.1l0-0.1l0,0l0,0l0,0l0,0l0,0l0,0l0,0l0,0h0l0,0l0,0h0l0,0l0,0l-0.1,0l-0.1,0.1l-0.2,0.2L55,47.2l-0.5,0.6L54.3,48
		L54,48.2l-0.3,0.2l-0.3,0.1l-0.3,0.1l-0.4,0.1l-1.3,0l-0.5-0.6l7.2-7.2l-0.9-1.2l-0.1,0l-0.1,0l-0.1,0l-0.1,0L56.8,40l-0.1,0.1
		l0,0.1l-0.1,0.2L56.5,41l-0.1,0.6L56.2,42l-0.4,0.9l-2.9-0.4l0,0v0v0l0,0l0,0l0,0l0-0.1l0.1-0.1l0.2-0.3l0.1-0.1l0,0l0-0.1l0,0l0,0
		v0l0,0l0,0l0,0l0,0l0,0l0,0l0,0l0,0l0,0l-0.1-0.1l-1-1l-0.3-0.4l-0.1-0.1l0-0.1l0,0l0,0l0,0l0,0l0,0v0v0l0,0l0,0l0,0l0,0l0,0l0,0
		l0,0l0,0h0l0,0h0.1l0.1,0l0.2,0l2.3,0.3h0.1l0.1,0l0.1,0l0.1,0l0.1,0l0,0l0,0l0,0l0,0l0,0l0,0l0-0.1l0-0.1l0-0.1L55.1,39l0-0.1
		l0-0.1v0l0,0l0,0l0,0l0,0l0,0l0,0l0,0l0,0l0,0h0h0.1l0.1,0l0.1,0l0.3,0.1l0.1,0H56l0.1,0l0.1,0l0.1,0l0.1,0l0.1,0l0.1-0.1l0.1-0.1
		l0.1-0.1l-1.4-1.2L55.1,37l0-0.1l0-0.2l0-0.1l0-0.1l0-0.1l0-0.1l0.1-0.1l0.1-0.1l0.1,0l0.1,0l0.1,0l0.2,0l0.1,0l0.3,0l0.1-0.5
		l0-0.2l0-0.2l0-0.1l0,0l0,0l0,0l0,0l0,0l0,0l0,0l0,0l0,0l0,0h0h0l-0.1,0l-0.1,0L53,37.5l-0.2,0.2l-0.4,0.4l-0.1,0.1l-0.1,0
		l-0.1,0.1l-0.1,0l-0.1,0l-0.1,0l-0.1,0l-0.1,0l-0.1,0l-0.8-0.1l-0.3-0.1l-0.1,0l-0.1-0.1l-0.1-0.1l-0.1,0L50,38l0-0.1l0,0l0,0
		l0-0.1l0-0.1l0-0.1v0l0,0l0-0.1l0,0l0-0.1l0.1-0.1l0.2-0.2L54.5,34.1L54.5,34.1L54.5,34.1L54.5,34.1z M187.8,49.8
		c-1.4-2.2-1.5-2.5-2-3.2c0-0.1,0.1-0.1,0.1-0.2c1.5,0.8,2.1,1.4,3.4,0c1.1-1.5,2.1-2.9,2.9-4.5c0-0.1-0.1-0.2-0.1-0.2
		c-2.4-0.4-4.4,0.8-6.7,0.8c-1.1-0.8-1.4-2-1.8-3c0.1-0.1,0.1-0.2,0.2-0.2c3.3,0.4,6.7,1.3,10.1,1c0.7-0.2,2.5-1.2,2.3-1.6
		c-0.8-1.1-4.1,0.3-5.1-1.6c0-0.2,0.1-0.2,0.2-0.3c2.4,0.3,4.5,0.4,6.8,0.7c1-0.8,2.4-1.1,3.5-1.7c0.5-0.3,0.8-0.6,1.1-1
		c-0.4-0.9-2.3-1.2-2.8-0.6c-0.4,1.5-0.6,2.7-2.4,2.8c-1.2-0.1-1.6-0.9-2.1-1.8c0.3-1.5,1.2-1.5,1.9-2.4c-0.5-0.5-1.3-0.2-1.8,0
		c-0.2,0.4-0.4,0.7-0.5,1.2c-0.1,0.6,0,1.7-1.1,1.7c-0.3-0.1-0.5-1.3-0.8-1.4c-0.6-0.1-0.6,0.6-1.2,0.9c-0.2,0-0.4,0.1-0.4-0.5
		c0.3-1.6,0.4-3.9,1-5.4c1,0,0.5,1.3,1.3,2.1c0.1,0,0.1,0,0.2,0c0.3-1.4,0.4-2.8,0.1-3.9c0-0.2,0-0.3,0.1-0.4
		c0.6-0.3,1.2,1.6,1.3,2.3c0,0.7,0,1.4,0,2.1c0.6,0.5,1.2,0.4,1.8-0.2c0-0.7-0.1-1.3,0-1.7c0.7,0.1,1.2,1.1,2.1,1
		c0.4-0.4,0.9-0.7,1.4-1.1c0.5,0.3,1.8,1.9,0.8,2.7c-0.2,0.2-0.4,0.3-0.7,0.5c0.7,0.5,3.1,0.5,3.8,0.7c1,0.4,2.2,2.9,0.7,4.2
		c-0.4,0.3-2.3,0-3.3-0.1c-1.1,0.1-1.1,0.1-2,0.4c-0.3,0.6-0.3,0.6,0,1.6c-0.2,1.9-2.7,0.4-3.2,1.7c0.6,0.5,1.8,1.6,1.4,2.7
		c-0.6,0.3-2.6,0.2-3.1-0.2c0.5-1,0.5-1,0.5-1.2c-0.2-0.2-0.3-0.4-0.6-0.3c-1.2,0.4-2.9,3.7-3.7,5C190.6,47.9,189.6,50.6,187.8,49.8
		L187.8,49.8z M197.3,35.2c0-0.1-0.1-0.3-0.1-0.4c0.3-0.4,0.7-1,1.1-0.4c-0.1,0.3-0.2,0.5-0.6,1C197.5,35.3,197.4,35.3,197.3,35.2
		L197.3,35.2z M169.5,36.2c-0.4-0.8-0.4-0.9-0.4-1.5c0.2-1.2,0.6-4.9,1.3-5.7c0.1,0,0.2,0.1,0.4,0.1c0,0.2,0.1,0.4,0.2,0.5
		c0,2.7,0.3,4.8,2.7,6.9c0,0.1,0.1,0.2,0.1,0.3C173.4,37.3,170.2,36.4,169.5,36.2L169.5,36.2z M160.2,30.4c-0.3-0.2-0.3-0.2-0.6-0.5
		c-0.2-0.2-0.1-0.3,0.1-0.2c0.9,0.2,1.7,0.4,2.8,0.4c1.6,0,3.3-0.5,4.4-1.6c-0.9-0.4-2.1-0.1-3-0.1c-0.7-0.5-1.6-2.8-1.4-3.3
		c0.7,0,3.9,1.3,4.5,0.9c3.2,0.6,3.6-0.9,5.5-3.4c0.6-0.9,1.7-3.4,2.5-3.5c0.5,0.8,0.8,2.2,1,3.3c-0.8,1.3-2.6,2.4-3.2,3.9
		c1.4,0.7,2.3-0.7,3.6,1.1c0.1,0.3,0.1,0.3,0,0.6c-0.7,0.4-2.3,0.1-3,0c-2,0-2,0-2.5,0.1C168.2,30,164,33.2,160.2,30.4L160.2,30.4z
		 M140.5,23.3c-0.9-1.6,0.3-1.7,0-2.6c-0.1,0-0.2,0-0.2,0c-0.2,0.5-1,0.3-1.3,0.3c-0.7,1-1.5,1.9-2.2,2.9c0,0.9,0,7.8-1.8,7.7
		c-1.1-1.4-0.7-2.1-0.4-3.6c0-0.5,0.1-0.9,0.1-1.4c-0.5,0-1.4,1.3-1.8,1.8c-1.1,0.1-1.9-0.7-1.7-1.5c1.4-0.5,2.8-1.9,3.7-3
		c0.3-1.5,0.3-1.5,0.4-3.2c-0.1,0-0.2,0-0.2,0c-0.5,0.4-1,0.7-1.4,1.1c-1.2,1.4-3,0.3-2.7-1.1c1.6-0.3,3-1.3,4.5-2.1
		c0.4-1.6,0.5-3.2,0.5-4.6c-0.6-1,0.6-1.4,1.3-1.8c2,0.5,0.9,2.1,0.6,3.9c0,0.3,0,0.7,0,1c0.4,0,0.4-0.5,1.1-0.6
		c0.4,0.2,0.6,0.2,0.6,1c-2.4,1.6-2,0.9-2.2,4c0.4,0,1.3-0.9,1.3-1.3c-0.4-0.6-0.4-0.6-0.3-1c1.1-0.1,2.4-0.7,3.5-1.1
		c0.5-1.3,0.7-2.2,1.4-4.2c1.3-1.5,3.3,0.9,3.2,2.5c-0.2,0.8-2.9,2-3.8,2.9c-0.1,0.4-0.8,1.8-0.6,2.3c1.5,0.1,2.2-2.8,4.3-1.5
		c0.4,0.4,0.7,0.6,0.8,1.4c-1.1,1.5-2.5,3.3-3.1,5.1c1.5,1.8,2.6,2,5.1,2.6c-0.2,0.5-2.8,1.6-3.4,1.8c-2.2,0.5-2.6-1.6-3-2.9
		c-1.6,1.3-3,2.3-5.1,1.4c0-0.1,0-0.2,0-0.2c1.2-0.6,2.4-0.7,3.4-1.9c1.7-0.9-1.3-2.5-1-3.6c0-0.3,0.4-0.4,0.8-0.2
		c0.3,0.4,1.4,1.4,2,1.6c0.3-0.7,0.6-1.5,1.1-2.1c-0.6-0.2-1.1,0.5-1.6,0.8C141.5,23.5,140.9,23.3,140.5,23.3L140.5,23.3z
		 M106.5,26.7c-0.1-0.7,0.3-1,0.6-1.4c0.2,0,0.3,0.2,0.3,0.3C107.1,26.3,107,26.4,106.5,26.7L106.5,26.7z M106.7,17.1
		c1,0.3,1.5,0.4,1.6,1.8c0.8-0.1,0.3-1.2,2-0.3c0.6,0.7,0.6,0.9,0.2,2c-0.6,0.8-1.2,1.5-1.8,2.3c0.3,1,0.2,1.3,0.4,1.5
		c0.4-0.1,0.9-0.7,1.4-1c-0.1,1.1-0.7,1.4-1.3,2.1c0.3,1.6,1.2,4.2,0.3,5.5c-2,0.6-1.7-2.1-1.9-3.2c-0.1,0-0.1-0.1-0.2-0.1
		c-1,1-1.9,2.1-3.1,1.3c-0.5-0.6,0.4-2,1.2-3.1c0.4-0.5,1.5-2.5,1.6-2.9c-0.1-0.3-0.1-0.5-0.2-0.8c-0.1,0-0.1,0-0.2,0
		c-0.8,0.8-2.1,2.7-3.4,2.4c-0.9-0.7-0.9-0.8-1.2-1.5c1.5-0.2,3.2-1.8,4.3-2.7c-0.2-1.1-0.4-2.2-0.3-3.1c-0.8,0.1-1.5,0.8-2.1,0.5
		c-0.1-0.2,0-0.3,0.1-0.4c2.7-2.5,3.4-3.1,3.8-3.6c0.9-0.7,0.5-1.6,1.8-1c0.7,0.3,1,1.5,0.7,1.7c-1.1,0.9-2.6,1.6-3.8,2.4
		C106.7,17,106.7,17.1,106.7,17.1L106.7,17.1z M116.8,33c-0.2-0.3-0.4-0.5-0.6-0.8c-0.3-1.9-0.5-4.5-1.1-6.3c-0.6,0.1-1,0.8-1.4,1.2
		c-1.1,0.3-1.3,0.1-1.9-0.5c-0.1-0.2-0.1-0.3-0.1-0.5c0.4-1.2,1.2-3.9-0.3-4.4c-0.5-0.6-0.4-0.7-0.5-1.1c0.8-0.4,0.4-2.1,0.2-2.6
		c-0.8-0.9-2.6-1.5-0.9-2.1c1.2,0,2.8-0.3,3.1,1.4c-0.2,0.6-1.3,1.8-0.9,2.5c0.9,0.1,1.8,0.4,1.4,1.8c-0.9,0.8-0.7,1.4-0.5,2.6
		c0.7-0.4,1.2-1.2,1.4-1.8c-0.1-3.7-1.6-7-1.6-10.3c0.6-1,1.8-1.2,2.6,0.1c-0.2,2.2,0.1,6,0.9,8.2c0.5-0.6,0.6-1.1,0.6-1.9
		c1-0.3,1.9,0.7,2.1,1.8c-0.9,0.8-2,1.7-2.4,2.7c0.4,3.5,0.8,5.3,1,7.5C117.7,31.3,117.5,32.7,116.8,33L116.8,33z M89.2,39.1
		c-0.2,0.2-0.8-0.1-1-0.3c-3-3.2-2.5-7.9-4.9-10.8c-1,0.4-0.8,3.3-1.7,3.8c-2.2,1.3-3-1.7-3-3c0-0.8,0-1.6,0-2.4
		c0.8-0.1,1.8,1.2,2.5,2c0.1,0,0.2,0,0.3-0.1c2.1-2.9-0.2-5-1.8-7.2c-0.2-0.6-0.1-1.3,0.3-1.7c0.3-0.5,1.8-0.3,1.9-0.3
		c0.2,0,0.3,0.1,0.6,0.2c0.5,0.8,0.8,2.3,1.2,3.5c0.1,0,0.2,0,0.3,0.1c0.8-0.9,1.5-2.4,2.4-3.5c0.7-0.6,2.1-1.4,2.5,0.3
		c-0.1,1.3-3.6,4.2-0.7,5c0.2,0.1,0.3,0.2,0.3,0.3c-0.1,1.4-1.8,2.7-2.7,3.5c0.7,2.6,2.1,5.2,3.3,7.8C89.4,37.3,89.9,38.5,89.2,39.1
		L89.2,39.1z M85.4,26.7c-0.6,0.1-0.9-1.5-1-1.7c0.1-0.5,0.6-1.7,1.3-1.9C86,24.7,86.5,25.5,85.4,26.7L85.4,26.7z M61.4,41.2
		L61.4,41.2l0,0.1l0,0.1l0.1,0.2l0.5,0.8l0.1,0l0.1-0.1l0.1-0.1l0,0l0-0.1l0,0l0-0.1l0,0l0,0l0,0l0,0l0,0l0-0.1l0-0.1l0-0.1l0-0.1
		l-0.1-0.1l-0.1-0.1l-0.1-0.1l-0.1-0.1l-0.1-0.1l-0.1,0l-0.1,0l-0.1,0h0h0l0,0l0,0l0,0l0,0l0,0l0,0l0,0l0,0L61.4,41.2L61.4,41.2
		L61.4,41.2L61.4,41.2L61.4,41.2L61.4,41.2L61.4,41.2L61.4,41.2z M60.5,39.6l1.7-2.3l0,0l0,0l0,0l0,0l0,0h0h0h0l0,0l0,0l0,0l0,0l0,0
		l0,0l0,0l0,0l0,0l0,0l0,0v0l0,0l0,0l0,0l0,0l-1.2,2.1l0,0l0,0l0,0l0,0l-0.1,0l-0.1,0l-0.1,0l-0.1,0h-0.1h-0.1h-0.1l-0.1,0l-0.1,0
		l0,0l0,0l0,0l0,0l0,0l0,0l0,0l0,0l0,0l0,0l0,0l0,0L60.5,39.6L60.5,39.6L60.5,39.6L60.5,39.6L60.5,39.6L60.5,39.6L60.5,39.6
		L60.5,39.6z M58.4,36.7l1.3,2l0.1,0l0.1-0.1l0.1-0.1l0.1-0.1l0.1-0.1l0.1-0.1l0-0.1l0-0.1l0-0.1l0-0.1l0-0.2l-0.2-0.5l-0.1-0.2
		l-0.2-0.3l-0.1-0.1l-0.1-0.1l-0.1-0.1l-0.1,0l-0.1,0l0,0l0,0h0h0h0l0,0l-0.1,0L58.4,36.7L58.4,36.7L58.4,36.7L58.4,36.7z M57,30.5
		L57,30.5l0-0.2l0-0.1l0,0l0,0l0,0l0,0l0,0l0,0l0,0l0,0h0l0,0l0,0l0.1,0l0,0l0.1,0.1l0.1,0.1l0.1,0.1l0,0.1l0,0l0,0.1l0,0.1l0,0.1
		l0,0.1l0,0.1l0,0.1l-0.2,0.5l0,0.1l0,0.1l0,0l0,0l0,0l0,0l0,0l0,0l0,0h0h0h0l0,0l0,0l0,0l0,0l0,0l0,0l0,0l0,0l0,0l0,0l0,0l0,0
		L57,30.5L57,30.5L57,30.5L57,30.5z M59.9,43.5l0.6,0.8l-2,2.7l-0.1,0.1l0,0l-0.1,0l0,0l0,0l0,0h0h0h0l0,0h0l0,0l0,0l0,0l0,0l0,0
		l0,0l0,0l0,0l0,0l0,0l0,0l0,0v0v0l0,0l0,0l0,0L59.9,43.5L59.9,43.5L59.9,43.5z"/>
	<path fill-rule="evenodd" clip-rule="evenodd" d="M213.6,61.8l4.4-3.5l0.1,0.2c-1,1-1.7,1.9-2,2.6c-0.5,1-0.5,1.9,0,2.5
		c0.7,0.9,1.9,1.1,3.7,0.5c1.5-0.5,3.1-1.4,4.8-2.6c1.4-1,2.5-2.1,3.5-3.2c0.9-1.1,1.5-2.1,1.7-2.9c0.2-0.8,0.2-1.4-0.2-1.9
		c-0.2-0.3-0.4-0.5-0.8-0.6c-0.3-0.1-0.7-0.2-1.1-0.3l-4.1,3.1c-0.7,0.5-1.2,0.9-1.4,1.1c-0.2,0.2-0.3,0.4-0.3,0.6
		c0,0.2,0.1,0.4,0.3,0.7l-0.4,0.3l-2-2.8l0.4-0.3l0.1,0.1c0.2,0.3,0.5,0.3,1,0.2c0.3-0.1,0.9-0.5,1.6-1l4.4-3.2
		c0.7,0.1,1.3,0.2,1.8,0.5c0.5,0.2,0.9,0.6,1.3,1.1c1,1.4,0.9,3.1-0.4,5.1c-0.9,1.5-2.3,2.9-4,4.2c-1.3,0.9-2.6,1.7-4,2.2
		c-1.6,0.7-3.1,0.9-4.3,0.9c-1-0.1-1.8-0.5-2.3-1.2c-0.2-0.3-0.3-0.5-0.4-0.8c-0.1-0.3-0.1-0.7-0.1-1.3c0-0.3,0-0.5-0.1-0.6
		c-0.1-0.1-0.2-0.1-0.3,0c-0.2,0-0.4,0.2-0.8,0.4L213.6,61.8L213.6,61.8z M214.6,141.5c0.6-0.1,1-0.3,1.3-0.5c0.8-0.6,1-1.6,0.7-3.1
		c-0.3-1.5-1.2-3.1-2.6-5c-1.4-1.9-2.8-3.2-4.1-3.8c-1.3-0.7-2.4-0.7-3.2-0.1c-0.3,0.2-0.6,0.6-0.8,1.1L214.6,141.5L214.6,141.5z
		 M213.5,143.9l-0.3-0.4l0.3-0.2c0.3-0.2,0.3-0.6,0.2-1c-0.1-0.3-0.4-0.8-1-1.6l-6.7-8.8c-0.6-0.8-1.1-1.3-1.4-1.5
		c-0.4-0.2-0.7-0.2-0.9,0l-0.3,0.2l-0.3-0.4l2.7-2.1c1-0.8,1.9-1.1,2.8-1.1c0.9,0.1,1.9,0.5,3,1.3c1.1,0.8,2.2,2,3.3,3.4
		c1.4,1.9,2.4,3.7,2.8,5.4c0.4,1.9,0,3.3-1.3,4.3L213.5,143.9L213.5,143.9z M195.2,136.4l1.8-1.4l11.9,7l-6-7.8
		c-0.6-0.8-1.1-1.3-1.3-1.5c-0.3-0.2-0.6-0.2-0.9,0l-0.2,0.2l-0.3-0.4l2.3-1.8l0.3,0.4l-0.2,0.2c-0.3,0.2-0.4,0.5-0.2,1
		c0.1,0.3,0.4,0.8,1,1.5l8.7,11.4l-0.2,0.1l-12.8-7.5l6.4,8.4c0.6,0.8,1.1,1.3,1.3,1.5c0.3,0.2,0.6,0.2,0.9,0l0.2-0.2l0.3,0.4
		l-2.3,1.8l-0.3-0.4l0.2-0.2c0.3-0.2,0.4-0.6,0.2-1c-0.1-0.3-0.4-0.8-1-1.5l-7.2-9.4c-0.5-0.3-0.9-0.5-1.1-0.6
		c-0.2-0.1-0.5-0.1-0.8-0.1c-0.1,0-0.3,0.1-0.5,0.2L195.2,136.4L195.2,136.4z M198.5,147l-5.3-4.6l3,6.4L198.5,147L198.5,147z
		 M199.2,147.6l-2.6,2l1.2,2.5c0.3,0.6,0.5,1,0.7,1.3c0.2,0.2,0.3,0.3,0.6,0.4c0.2,0.1,0.5,0,0.9-0.2l0.3,0.4l-2.1,1.6l-0.3-0.4
		c0.2-0.3,0.3-0.6,0.2-0.8c-0.1-0.4-0.4-1.2-0.9-2.4l-6.2-13l0.2-0.1l11,9.5c0.9,0.8,1.5,1.2,1.9,1.4c0.4,0.1,0.7,0.1,1,0l0.3,0.4
		l-2.7,2l-0.3-0.4c0.2-0.2,0.4-0.5,0.3-0.7c0-0.2-0.1-0.4-0.3-0.7c-0.2-0.3-0.6-0.7-1.3-1.2L199.2,147.6L199.2,147.6z M231.3,104
		l0.8-3.9l-5-0.9c-0.9-0.2-1.5-0.2-1.8-0.2c-0.2,0-0.4,0.1-0.6,0.2c-0.2,0.1-0.4,0.3-0.4,0.5l-0.1,0.3l-0.5-0.1l0.7-3.6l0.5,0.1
		l-0.1,0.3c0,0.2,0,0.4,0.2,0.6c0.1,0.2,0.3,0.3,0.6,0.4c0.3,0.1,0.8,0.2,1.7,0.4l11.3,2.1c0.9,0.2,1.5,0.2,1.8,0.2
		c0.2,0,0.4,0,0.6-0.1c0.2-0.1,0.4-0.3,0.4-0.5l0.1-0.3l0.5,0.1l-0.7,3.6l-0.5-0.1l0.1-0.3c0.1-0.3-0.1-0.6-0.5-0.9
		c-0.3-0.2-0.9-0.3-2-0.5l-5.3-1l-0.8,3.9l5.3,1c0.9,0.2,1.5,0.2,1.8,0.2c0.2,0,0.4-0.1,0.6-0.2c0.2-0.1,0.4-0.3,0.4-0.5l0.1-0.3
		l0.5,0.1l-0.7,3.6l-0.5-0.1l0.1-0.3c0.1-0.3-0.1-0.6-0.5-0.9c-0.3-0.1-0.9-0.3-2-0.5l-11.3-2.1c-0.9-0.2-1.5-0.2-1.8-0.2
		c-0.2,0-0.4,0.1-0.6,0.2c-0.2,0.1-0.4,0.3-0.4,0.5l-0.1,0.3l-0.5-0.1l0.7-3.6l0.5,0.1l-0.1,0.3c0,0.2,0,0.4,0.2,0.6
		c0.1,0.1,0.3,0.3,0.6,0.4c0.3,0.1,0.8,0.2,1.7,0.4L231.3,104L231.3,104z M221.8,106.1l6,1l0,0.2c-1.8-0.1-3.2,0-4.1,0.3
		c-0.9,0.3-1.4,0.8-1.5,1.5c-0.1,0.6,0.1,1.1,0.6,1.7c0.5,0.6,1.4,1.1,2.6,1.6c1.2,0.5,2.8,0.9,4.7,1.3c1.6,0.3,3,0.5,4.2,0.4
		c1.2,0,2.2-0.2,2.9-0.6c0.7-0.4,1.1-0.9,1.3-1.5c0.1-0.5,0-1.1-0.4-1.6c-0.4-0.5-1.3-1.2-2.6-1.9l0.3-0.1c1.5,0.7,2.5,1.4,3.1,2.1
		c0.6,0.7,0.8,1.4,0.7,2.2c-0.3,1.4-1.6,2.3-3.9,2.6c-1.7,0.3-3.7,0.2-5.8-0.2c-1.7-0.3-3.3-0.8-4.7-1.5c-1.4-0.7-2.4-1.4-3.1-2.2
		c-0.7-0.8-0.9-1.6-0.8-2.4c0.1-0.6,0.6-1.1,1.3-1.6c0.2-0.1,0.3-0.2,0.4-0.3c0-0.1,0-0.2-0.2-0.3c-0.2-0.2-0.5-0.3-0.9-0.4
		L221.8,106.1L221.8,106.1z M218.4,116l6.4,3.1l0.8-1.7c0.2-0.5,0.2-0.8,0-1.1c-0.3-0.4-0.9-0.8-1.8-1.3l0.1-0.2l5.6,2.7l-0.1,0.2
		c-0.8-0.3-1.3-0.5-1.6-0.6c-0.3-0.1-0.6-0.1-0.8,0c-0.2,0.1-0.4,0.3-0.6,0.6l-0.8,1.7l5.3,2.6c0.7,0.3,1.2,0.5,1.3,0.6
		c0.2,0,0.3,0,0.4,0c0.1,0,0.2-0.2,0.3-0.4l0.6-1.3c0.2-0.4,0.3-0.8,0.3-1.1c0-0.3-0.2-0.6-0.5-0.9c-0.4-0.5-1-1.1-1.9-1.8l0.1-0.2
		l3.7,2.6l-2.9,6.1l-0.4-0.2l0.1-0.3c0.1-0.2,0.1-0.4,0-0.7c-0.1-0.2-0.2-0.4-0.4-0.5c-0.2-0.2-0.7-0.4-1.5-0.8l-10.5-5.1
		c-1-0.5-1.7-0.8-2-0.8c-0.4,0-0.7,0.1-0.8,0.5l-0.1,0.3l-0.4-0.2l2.9-6.1l3.6,1.6l-0.1,0.2c-0.9-0.3-1.5-0.5-1.9-0.6
		c-0.4-0.1-0.7,0-0.9,0.1c-0.2,0.1-0.4,0.3-0.6,0.7L218.4,116L218.4,116z M216.8,118.7l3.8,1.9l-0.1,0.2c-0.7-0.3-1.2-0.5-1.5-0.6
		c-0.5-0.1-0.9-0.1-1.2,0c-0.3,0.1-0.6,0.3-0.7,0.6l-0.6,1.1l12.1,6.3c1,0.5,1.6,0.8,1.9,0.8c0.4,0,0.7-0.1,0.8-0.4l0.1-0.3l0.4,0.2
		l-1.7,3.3l-0.4-0.2l0.1-0.3c0.2-0.3,0.1-0.7-0.2-1c-0.2-0.2-0.8-0.6-1.6-1l-12.1-6.3l-0.5,0.9c-0.2,0.4-0.3,0.7-0.2,0.9
		c0,0.3,0.2,0.6,0.6,1c0.3,0.4,0.9,0.7,1.6,1.1l-0.1,0.2l-3.7-2L216.8,118.7L216.8,118.7z M223.8,82.5c0,0.8,0.6,1.4,1.8,1.9
		c1.5,0.6,3.6,0.8,6.5,0.8c2.9-0.1,5.1-0.4,6.7-1.1c1.2-0.5,1.8-1.1,1.8-1.9c0-0.8-0.7-1.5-2-2c-1.3-0.5-3.4-0.7-6.2-0.7
		c-3,0.1-5.3,0.4-6.8,1C224.4,81,223.8,81.6,223.8,82.5L223.8,82.5z M222.9,82.4c0-1.1,0.8-2.2,2.6-3c1.7-0.9,3.9-1.3,6.6-1.4
		c2.7-0.1,5,0.3,6.8,1.1c1.8,0.8,2.7,1.8,2.7,3c0,1.2-0.8,2.2-2.6,3.1c-1.7,0.9-4,1.3-6.7,1.4c-2.8,0.1-5.1-0.4-7-1.3
		C223.7,84.5,222.9,83.5,222.9,82.4L222.9,82.4z M225,96l0-2.4l13.3-5.7l-10.3,0.2c-1.1,0-1.8,0.1-2,0.2c-0.4,0.2-0.5,0.4-0.5,0.8
		l0,0.3l-0.5,0l-0.1-3.1l0.5,0l0,0.3c0,0.4,0.2,0.6,0.7,0.8c0.3,0.1,0.9,0.1,1.9,0.1l15-0.3l0,0.2l-14.2,6.1l11-0.2
		c1.1,0,1.8-0.1,2-0.2c0.4-0.2,0.5-0.4,0.5-0.8l0-0.3l0.5,0l0.1,3.1l-0.5,0l0-0.3c0-0.4-0.2-0.6-0.7-0.8c-0.3-0.1-0.9-0.1-1.9-0.1
		l-12.4,0.2c-0.6,0.3-1,0.5-1.2,0.6c-0.2,0.1-0.4,0.3-0.5,0.6c-0.1,0.1-0.1,0.3-0.1,0.6L225,96L225,96z M219.9,71
		c0.3,0.7,1.1,1.1,2.4,1.1c1.6,0,3.7-0.6,6.3-1.7c2.7-1.1,4.6-2.3,5.8-3.5c0.9-0.9,1.2-1.7,0.9-2.4c-0.3-0.8-1.2-1.1-2.6-1.1
		c-1.4,0-3.4,0.6-6,1.7c-2.8,1.2-4.8,2.3-5.9,3.5C219.9,69.4,219.6,70.2,219.9,71L219.9,71z M219,71.2c-0.4-1.1,0-2.3,1.3-3.8
		c1.3-1.5,3.1-2.7,5.6-3.7c2.5-1.1,4.7-1.5,6.7-1.4c2,0.1,3.2,0.7,3.7,1.8c0.5,1.1,0.1,2.4-1.2,3.8c-1.3,1.4-3.2,2.7-5.8,3.8
		c-2.6,1.1-4.9,1.6-6.9,1.4C220.5,72.9,219.4,72.3,219,71.2L219,71.2z M234.2,69.5l0.1-0.2l4.9-0.1l1,6.7l-0.5,0.1l0-0.3
		c-0.1-0.4-0.3-0.6-0.8-0.7c-0.3,0-0.9,0-1.9,0.2l-11.4,1.9c-1.1,0.2-1.8,0.4-2,0.5c-0.4,0.2-0.5,0.5-0.5,0.8l0,0.3l-0.5,0.1L222,75
		l0.5-0.1c0.1,0.5,0.2,0.8,0.4,0.9c0.2,0.2,0.5,0.2,0.8,0.3c0.3,0,1-0.1,2-0.2l11.1-1.8c0.7-0.1,1.2-0.2,1.5-0.3
		c0.2-0.1,0.3-0.2,0.4-0.3c0.1-0.1,0.1-0.5,0-1l-0.1-0.6c-0.1-0.7-0.3-1.1-0.5-1.4c-0.2-0.2-0.6-0.4-1.2-0.6
		C236.2,69.7,235.4,69.6,234.2,69.5L234.2,69.5z M208.9,57.7l-2-2.3l0.4-0.3l0.1,0.1c0.1,0.1,0.3,0.1,0.6,0.2c0.3,0,0.6,0,1-0.1
		c0.4-0.1,1-0.4,1.8-0.7l6.5-2.9l3.3-3c0.8-0.7,1.3-1.2,1.4-1.5c0.2-0.4,0.1-0.7-0.1-0.9l-0.2-0.2l0.4-0.3l2.5,2.8l-0.4,0.3
		l-0.2-0.2c-0.2-0.3-0.6-0.3-1-0.1c-0.3,0.1-0.8,0.5-1.5,1.2l-3.2,2.8l-4,6.8c-0.5,0.8-0.7,1.3-0.8,1.5c-0.1,0.2-0.2,0.6-0.2,1
		c0,0.1,0,0.2,0.2,0.4l-0.4,0.3l-2.5-2.8l0.4-0.3l0.1,0.1c0.1,0.2,0.3,0.2,0.6,0.2c0.3,0,0.5-0.1,0.8-0.4c0.2-0.2,0.6-0.7,1-1.4
		l3.1-5.2l-5.3,2.4c-0.8,0.4-1.3,0.7-1.6,0.9c-0.2,0.2-0.3,0.3-0.4,0.5c-0.1,0.2-0.2,0.3-0.2,0.5c0,0.2,0.1,0.3,0.2,0.5L208.9,57.7
		L208.9,57.7z M39,59l-2,3.6l4.5,2.5c0.8,0.4,1.3,0.7,1.6,0.8c0.2,0.1,0.4,0.1,0.6,0c0.3-0.1,0.5-0.2,0.6-0.4l0.2-0.3l0.4,0.2
		L43,68.8l-0.4-0.2l0.2-0.3c0.1-0.2,0.1-0.4,0-0.7c-0.1-0.2-0.2-0.4-0.4-0.6c-0.2-0.2-0.7-0.5-1.5-0.9l-10-5.6
		c-0.8-0.4-1.3-0.7-1.6-0.8c-0.2-0.1-0.4-0.1-0.6,0c-0.3,0.1-0.5,0.2-0.6,0.4l-0.2,0.3l-0.4-0.2l1.8-3.3l0.4,0.2l-0.2,0.3
		c-0.2,0.3-0.1,0.7,0.2,1c0.2,0.2,0.8,0.6,1.7,1.1l4.7,2.6l2-3.6l-4.7-2.6c-0.8-0.4-1.3-0.7-1.6-0.8c-0.2-0.1-0.4-0.1-0.6,0
		c-0.3,0.1-0.5,0.2-0.6,0.4l-0.2,0.3l-0.4-0.2l1.8-3.3l0.4,0.2l-0.2,0.3c-0.2,0.3-0.1,0.7,0.2,1c0.2,0.2,0.8,0.6,1.7,1.1l10.1,5.6
		c0.8,0.4,1.3,0.7,1.6,0.8c0.2,0.1,0.4,0.1,0.6,0c0.3-0.1,0.5-0.2,0.6-0.4l0.2-0.3l0.4,0.2l-1.8,3.3l-0.4-0.2l0.2-0.3
		c0.1-0.2,0.1-0.4,0-0.7c-0.1-0.2-0.2-0.4-0.4-0.6c-0.2-0.2-0.7-0.5-1.5-0.9L39,59L39,59z M39.2,74.6l0.4,0.2l-1.5,2.7l-0.4-0.2
		l0.2-0.3c0.2-0.3,0-0.7-0.4-1.1c-0.2-0.2-0.7-0.6-1.6-1l-6.3-3.5c-1.6-0.9-2.7-1.6-3.5-2.2c-0.8-0.6-1.3-1.4-1.7-2.1
		c-0.4-0.8-0.3-1.6,0.1-2.4c0.5-0.8,1.1-1.3,2-1.4c0.8-0.1,1.8,0,2.9,0.4c0.7,0.3,2.1,0.9,3.9,1.9l6.1,3.4c1,0.5,1.6,0.8,2,0.9
		c0.4,0,0.6-0.1,0.8-0.4l0.2-0.3l0.4,0.2l-1.9,3.3l-0.4-0.2l0.2-0.3c0.2-0.3,0.1-0.7-0.2-1c-0.2-0.2-0.8-0.6-1.6-1.1l-6.8-3.8
		c-0.6-0.3-1.3-0.7-2.1-1.1c-0.8-0.4-1.5-0.6-2-0.7c-0.5-0.1-1-0.1-1.4,0c-0.4,0.1-0.8,0.4-1,0.8c-0.3,0.5-0.3,1.1-0.1,1.7
		c0.2,0.6,0.6,1.2,1.2,1.8c0.6,0.5,1.7,1.3,3.4,2.2l6.3,3.5c1,0.5,1.6,0.8,1.9,0.9c0.4,0,0.7-0.1,0.9-0.4L39.2,74.6L39.2,74.6z
		 M25,76l1.2-3.2l-2.4-1.6c-0.6-0.4-1-0.6-1.4-0.8c-0.3-0.1-0.5-0.1-0.7-0.1c-0.2,0-0.5,0.2-0.7,0.6l-0.4-0.2l1-2.6l0.5,0.2
		c0,0.4,0.1,0.7,0.2,0.9c0.3,0.4,1,0.9,2.1,1.6L37,79.1l-0.1,0.2L22,76.8c-1.2-0.2-2-0.3-2.4-0.2c-0.4,0.1-0.7,0.2-0.9,0.6L18.2,77
		l1.3-3.2l0.5,0.2c-0.1,0.3-0.1,0.6,0.1,0.8c0.1,0.2,0.3,0.3,0.6,0.4c0.4,0.1,1,0.3,1.8,0.4L25,76L25,76z M26,76.2l7.3,1.2l-6.1-4
		L26,76.2L26,76.2z M35,87.3l-16.5-6.6l-0.2,3.6c0,0.6,0.2,1,0.7,1.3c0.5,0.3,1.5,0.6,2.9,0.9l-0.1,0.2l-4.7-0.6l0.3-7.2l0.5,0
		l16,6.4l0.1-2.8c0-0.5-0.1-0.8-0.3-1c-0.2-0.2-0.5-0.4-0.9-0.5c-0.4-0.1-1.1-0.3-2.2-0.4l0-0.2l4.4,0.4L35,87.3L35,87.3z
		 M34.5,101.1c0,1.1-0.8,2.2-2.5,3.1c-1.7,0.9-3.9,1.4-6.5,1.5c-2.7,0.1-5-0.2-6.8-1c-1.8-0.8-2.8-1.8-2.8-3
		c-0.1-1.2,0.8-2.3,2.5-3.2c1.7-0.9,3.9-1.4,6.7-1.5c2.8-0.1,5.2,0.3,7,1.1C33.7,99,34.5,100,34.5,101.1L34.5,101.1z M33.6,101.1
		c0-0.8-0.6-1.4-1.9-1.8c-1.5-0.5-3.7-0.7-6.5-0.6c-2.9,0.1-5.1,0.5-6.7,1.2c-1.2,0.5-1.7,1.2-1.7,1.9c0,0.8,0.7,1.5,2,2
		c1.3,0.5,3.4,0.7,6.2,0.6c3-0.1,5.3-0.5,6.8-1.2C33,102.6,33.6,101.9,33.6,101.1L33.6,101.1z M25.7,90.2l-0.5,4.1l5.1,0.7
		c0.9,0.1,1.5,0.2,1.8,0.1c0.2,0,0.4-0.1,0.6-0.2c0.2-0.2,0.4-0.3,0.4-0.5l0-0.3l0.5,0.1L33,97.8l-0.5-0.1l0-0.3
		c0-0.2,0-0.4-0.2-0.6c-0.1-0.2-0.3-0.3-0.6-0.4c-0.3-0.1-0.8-0.2-1.7-0.3l-11.4-1.5c-0.9-0.1-1.5-0.2-1.8-0.1
		c-0.2,0-0.4,0.1-0.6,0.2c-0.2,0.2-0.4,0.3-0.4,0.5l0,0.3l-0.5-0.1l0.5-3.7l0.5,0.1l0,0.3c0,0.4,0.1,0.6,0.5,0.9
		c0.3,0.1,0.9,0.3,2,0.4l5.4,0.7l0.5-4.1l-5.4-0.7c-0.9-0.1-1.5-0.2-1.8-0.1c-0.2,0-0.4,0.1-0.6,0.2c-0.2,0.2-0.4,0.3-0.4,0.5l0,0.3
		L16,90.3l0.5-3.8l0.5,0.1l0,0.3c0,0.4,0.1,0.7,0.5,0.9c0.3,0.1,0.9,0.3,2,0.4l11.4,1.5c0.9,0.1,1.5,0.2,1.8,0.1
		c0.2,0,0.4-0.1,0.6-0.2c0.2-0.2,0.4-0.3,0.4-0.6l0-0.3l0.5,0.1l-0.5,3.8l-0.5-0.1l0-0.3c0-0.2,0-0.4-0.2-0.6
		c-0.1-0.2-0.3-0.3-0.6-0.4c-0.3-0.1-0.9-0.2-1.7-0.3L25.7,90.2L25.7,90.2z M34.9,102.6l0.7,2.3l-11.1,9.2l9.8-3.1
		c1-0.3,1.7-0.6,1.9-0.8c0.3-0.3,0.4-0.6,0.3-0.9l-0.1-0.3l0.5-0.1l0.9,2.9l-0.5,0.1l-0.1-0.3c-0.1-0.4-0.4-0.5-0.9-0.5
		c-0.3,0-0.9,0.1-1.9,0.5l-14.3,4.6l-0.1-0.2l11.9-9.9l-10.5,3.3c-1,0.3-1.7,0.6-1.9,0.8c-0.3,0.3-0.4,0.6-0.3,0.9l0.1,0.3l-0.5,0.1
		l-0.9-2.9l0.5-0.1l0.1,0.3c0.1,0.4,0.4,0.5,0.9,0.6c0.3,0,0.9-0.1,1.9-0.5l11.8-3.8c0.5-0.4,0.8-0.7,1-0.9c0.1-0.2,0.3-0.4,0.3-0.7
		c0-0.1,0-0.3-0.1-0.6L34.9,102.6L34.9,102.6z M40.7,118.3l-5.2,2l-0.1-0.2c1.3-0.7,2.2-1.3,2.7-1.9c0.8-0.8,1.1-1.6,0.8-2.4
		c-0.4-1.1-1.5-1.6-3.4-1.6c-1.6,0-3.4,0.4-5.4,1c-1.6,0.5-3,1.2-4.2,2c-1.2,0.8-2.1,1.5-2.5,2.2c-0.5,0.7-0.6,1.3-0.4,1.9
		c0.1,0.3,0.3,0.6,0.5,0.8c0.3,0.2,0.6,0.4,1,0.6l4.9-1.7c0.8-0.3,1.4-0.5,1.6-0.7c0.2-0.2,0.4-0.3,0.5-0.5c0.1-0.2,0.1-0.4,0-0.8
		L32,119l1.1,3.2l-0.5,0.2l-0.1-0.2c-0.1-0.3-0.4-0.5-0.9-0.4c-0.3,0-1,0.2-1.9,0.5l-5.2,1.8c-0.7-0.3-1.2-0.6-1.6-1
		c-0.4-0.4-0.7-0.9-0.9-1.4c-0.5-1.6,0.1-3.2,1.9-4.7c1.4-1.2,3.1-2.1,5.1-2.8c1.5-0.5,3-0.8,4.4-0.9c1.8-0.1,3.2,0,4.3,0.5
		c0.9,0.4,1.5,1,1.8,1.8c0.1,0.3,0.2,0.6,0.1,0.9c0,0.3-0.1,0.7-0.3,1.3c-0.1,0.3-0.1,0.5-0.1,0.6c0,0.1,0.1,0.1,0.3,0.1
		c0.2,0,0.5-0.1,0.9-0.2L40.7,118.3L40.7,118.3z M47.1,125.9l0.4-0.3l2,2.4l-0.4,0.3l-0.2-0.3c-0.2-0.3-0.6-0.3-1.2-0.1
		c-0.3,0.1-0.8,0.5-1.5,1.1l-5.6,4.6c-1.4,1.1-2.5,2-3.4,2.4c-0.9,0.5-1.7,0.8-2.6,0.8c-0.9,0.1-1.6-0.3-2.2-0.9
		c-0.6-0.7-0.8-1.5-0.6-2.3c0.2-0.8,0.7-1.7,1.4-2.6c0.5-0.6,1.6-1.6,3.2-3l5.4-4.4c0.8-0.7,1.3-1.2,1.5-1.5
		c0.2-0.3,0.1-0.6-0.1-0.9l-0.2-0.3l0.4-0.3l2.4,2.9l-0.4,0.3l-0.2-0.3c-0.2-0.3-0.6-0.3-1-0.2c-0.3,0.1-0.9,0.5-1.6,1.1l-6,5
		c-0.5,0.4-1.1,1-1.8,1.6c-0.6,0.6-1.1,1.2-1.4,1.6c-0.3,0.4-0.4,0.9-0.5,1.3c-0.1,0.4,0.1,0.8,0.4,1.2c0.4,0.4,0.9,0.7,1.6,0.7
		c0.7,0,1.4-0.1,2.1-0.5c0.7-0.4,1.8-1.2,3.3-2.4l5.6-4.6c0.9-0.7,1.4-1.2,1.5-1.5c0.2-0.4,0.2-0.7,0-0.9L47.1,125.9L47.1,125.9z
		 M49.4,127.4l1.8,1.6l-4.7,13.6l6.8-7.8c0.7-0.8,1.1-1.4,1.2-1.7c0.1-0.4,0-0.7-0.2-0.9l-0.2-0.2l0.3-0.4l2.3,2l-0.3,0.4l-0.2-0.2
		c-0.3-0.2-0.6-0.2-1,0c-0.3,0.1-0.7,0.6-1.4,1.4l-9.9,11.3l-0.2-0.2l5-14.6l-7.2,8.3c-0.7,0.8-1.1,1.4-1.2,1.7
		c-0.1,0.4,0,0.7,0.2,0.9l0.2,0.2l-0.3,0.4l-2.3-2l0.3-0.4l0.2,0.2c0.3,0.2,0.6,0.2,1.1,0c0.3-0.1,0.7-0.6,1.4-1.3l8.1-9.3
		c0.2-0.6,0.3-1.1,0.3-1.3c0-0.2,0-0.5-0.1-0.8c0-0.1-0.2-0.3-0.4-0.5L49.4,127.4L49.4,127.4z M49.6,150.5l-0.3,0.4l-2.9-2.5
		l0.3-0.4l0.2,0.2c0.3,0.2,0.6,0.2,1,0c0.3-0.1,0.7-0.6,1.4-1.4l7.6-8.7c0.6-0.7,1-1.2,1.1-1.4c0.1-0.2,0.2-0.4,0.2-0.6
		c0-0.3-0.1-0.5-0.2-0.6l-0.2-0.2l0.3-0.4l2.9,2.5l-0.3,0.4l-0.2-0.2c-0.3-0.2-0.6-0.2-1,0c-0.3,0.1-0.8,0.6-1.5,1.4l-7.6,8.7
		c-0.6,0.7-1,1.1-1.1,1.4c-0.1,0.2-0.2,0.4-0.2,0.6c0,0.3,0.1,0.5,0.2,0.6L49.6,150.5L49.6,150.5z M69.8,142.2l-0.2,0.4
		c-0.3-0.1-0.6,0-0.9,0.2c-0.4,0.3-0.9,0.7-1.5,1.4l-10.3,11.5l-0.2-0.1l4.9-14.9c0.3-0.8,0.4-1.2,0.4-1.4c0-0.3,0-0.5,0-0.7
		c-0.1-0.2-0.2-0.4-0.4-0.6l0.2-0.4l3.1,1.8l-0.2,0.4c-0.4-0.1-0.7-0.2-0.9,0c-0.2,0.1-0.4,0.3-0.6,0.6c-0.2,0.4-0.5,1-0.8,1.9
		L59,152.3l7-7.8c0.7-0.8,1.1-1.3,1.3-1.7c0.1-0.2,0.2-0.5,0.2-0.7c0-0.3-0.1-0.5-0.3-0.7c0,0,0,0-0.1-0.1l0.2-0.4L69.8,142.2
		L69.8,142.2z M118.8,153.8c1.1,0,2.1,0.9,3,2.6c0.8,1.8,1.3,3.9,1.3,6.6c0,2.7-0.4,5-1.3,6.7c-0.8,1.8-1.9,2.7-3.1,2.7
		c-1.2,0-2.2-0.9-3.1-2.6c-0.8-1.7-1.2-4-1.2-6.8c0-2.8,0.5-5.1,1.4-6.9C116.7,154.6,117.7,153.8,118.8,153.8L118.8,153.8z
		 M118.7,154.8c-0.8,0-1.4,0.6-1.9,1.8c-0.6,1.5-0.9,3.6-0.9,6.5c0,2.9,0.3,5.2,0.9,6.7c0.5,1.2,1.1,1.8,1.9,1.8
		c0.8,0,1.5-0.7,2.1-2c0.5-1.3,0.8-3.4,0.8-6.2c0-3-0.3-5.3-0.9-6.8C120.2,155.4,119.5,154.8,118.7,154.8L118.7,154.8z M126.7,155.2
		v7h1.6c0.4,0,0.6-0.2,0.8-0.5c0.2-0.3,0.3-1,0.3-2h0.2v6h-0.2c0-0.7-0.1-1.2-0.1-1.5c-0.1-0.3-0.2-0.6-0.4-0.7
		c-0.1-0.2-0.4-0.2-0.7-0.2h-1.6v5.6c0,0.9,0,1.5,0.1,1.8c0,0.2,0.1,0.4,0.3,0.6c0.2,0.2,0.4,0.3,0.6,0.3h0.3v0.5h-3.8v-0.5h0.3
		c0.4,0,0.6-0.2,0.8-0.6c0.1-0.3,0.2-1,0.2-2v-11.5c0-0.9,0-1.5-0.1-1.8c0-0.2-0.1-0.4-0.3-0.6c-0.2-0.2-0.4-0.3-0.6-0.3h-0.3v-0.5
		h6.6l0.1,3.9h-0.2c-0.1-0.8-0.2-1.4-0.4-1.8c-0.1-0.4-0.3-0.7-0.6-0.8c-0.2-0.2-0.6-0.3-1-0.3H126.7L126.7,155.2z M77.1,164.9
		l-2.1-1.2l1.5-8.7c-0.2-0.1-0.4-0.2-0.5-0.2c0,0-0.1-0.1-0.2-0.1c-0.1,0-0.1-0.1-0.2-0.1l-2.5,4.5c-0.5,1-0.8,1.6-0.9,1.9
		c0,0.4,0.1,0.7,0.4,0.9L73,162l-0.2,0.4l-3.3-1.8l0.2-0.4l0.3,0.2c0.3,0.2,0.7,0.1,1.1-0.2c0.2-0.2,0.6-0.7,1.1-1.6l5.6-10.1
		c0.5-1,0.8-1.6,0.9-1.9c0-0.4-0.1-0.7-0.4-0.9l-0.3-0.2l0.2-0.4l2.8,1.6c0.8,0.5,1.4,0.9,1.6,1.4c0.3,0.5,0.3,1.1,0.2,1.9
		c-0.1,0.8-0.4,1.6-0.9,2.5c-0.5,1-1.2,1.7-1.9,2.2c-0.7,0.5-1.5,0.8-2.3,0.7l-0.9,5.4c-0.2,1.2-0.3,2.1-0.2,2.6
		c0.1,0.5,0.3,0.9,0.7,1.2L77.1,164.9L77.1,164.9z M76.1,153.8c0.1,0,0.1,0.1,0.2,0.1c0.1,0,0.1,0.1,0.1,0.1c0.7,0.4,1.5,0.4,2.2,0
		c0.7-0.4,1.4-1.1,1.9-2.1c0.5-1,0.8-1.8,0.9-2.6c0-0.8-0.2-1.3-0.7-1.6c-0.2-0.1-0.6-0.2-1-0.3L76.1,153.8L76.1,153.8z M89.9,149
		l-2.1,5.8l-0.2-0.1c0.3-1.1,0.5-2.1,0.6-2.8c0.1-0.7,0-1.4-0.2-1.9c-0.2-0.5-0.5-0.8-0.9-1c-0.4-0.2-0.9,0-1.3,0.4
		c-0.5,0.4-0.8,1-1.1,1.6c-0.2,0.5-0.3,1-0.3,1.5c0,0.7,0.3,1.8,0.9,3.1c0.5,1.1,0.8,2,0.9,2.5c0.1,0.6,0.1,1.2,0.1,1.8
		c-0.1,0.7-0.2,1.3-0.5,2c-0.5,1.3-1.1,2.3-1.9,3c-0.8,0.7-1.6,1-2.4,0.7c-0.2-0.1-0.5-0.2-0.6-0.4c-0.1-0.1-0.3-0.3-0.6-0.7
		c-0.3-0.4-0.5-0.6-0.6-0.7c-0.1,0-0.2,0-0.3,0.1c-0.1,0.1-0.2,0.3-0.4,0.7l-0.2-0.1l2.1-5.7l0.2,0.1c-0.3,1.2-0.5,2.2-0.6,2.9
		c0,0.7,0.1,1.3,0.3,1.8c0.2,0.5,0.6,0.9,1,1c0.5,0.2,1,0.1,1.5-0.4c0.5-0.4,0.9-1,1.2-1.8c0.2-0.4,0.2-0.8,0.3-1.3
		c0-0.5,0-0.9-0.1-1.4c-0.1-0.3-0.3-1-0.7-2c-0.4-1.1-0.7-1.9-0.8-2.5c-0.1-0.6-0.2-1.2-0.1-1.8c0.1-0.6,0.2-1.3,0.5-2
		c0.4-1.2,1.1-2.1,1.8-2.8c0.8-0.7,1.5-0.9,2.2-0.7c0.4,0.2,0.8,0.5,1.2,1.2c0.1,0.3,0.3,0.5,0.4,0.5c0.1,0,0.2,0,0.3-0.1
		c0.1-0.1,0.3-0.3,0.4-0.7L89.9,149L89.9,149z M108.8,153.7l3.1,0.3l-0.1,0.5l-0.2,0c-0.1,0-0.3,0.1-0.5,0.2
		c-0.2,0.2-0.5,0.4-0.7,0.8c-0.2,0.4-0.5,0.9-0.9,1.8l-2.9,6.5l-0.5,4.4c-0.1,1.1-0.1,1.8,0,2.1c0.1,0.4,0.4,0.6,0.7,0.6l0.3,0
		l-0.1,0.5l-3.7-0.4l0.1-0.5l0.3,0c0.4,0,0.7-0.2,0.9-0.6c0.1-0.3,0.2-0.9,0.4-1.9l0.5-4.2l-1.6-7.7c-0.2-0.9-0.3-1.5-0.4-1.7
		c-0.1-0.2-0.3-0.5-0.5-0.9c-0.1-0.1-0.2-0.2-0.4-0.2l0.1-0.5l3.8,0.4l-0.1,0.5l-0.2,0c-0.2,0-0.4,0-0.6,0.2
		c-0.2,0.2-0.3,0.5-0.4,0.8c0,0.3,0,0.9,0.2,1.7l1.2,5.9l2.3-5.3c0.4-0.8,0.5-1.4,0.6-1.8c0-0.2,0-0.5,0-0.7c0-0.2-0.1-0.4-0.2-0.5
		c-0.1-0.1-0.3-0.2-0.5-0.2L108.8,153.7L108.8,153.7z M72.2,144.2l-3.3,6.2l1.7,0.9c0.4,0.2,0.8,0.3,1.1,0.1
		c0.4-0.2,0.8-0.8,1.3-1.7l0.2,0.1l-2.9,5.5l-0.2-0.1c0.4-0.8,0.6-1.3,0.6-1.6c0.1-0.3,0.1-0.6,0-0.8c-0.1-0.2-0.3-0.4-0.6-0.6
		l-1.7-0.9l-2.8,5.2c-0.4,0.7-0.6,1.1-0.6,1.3c0,0.2-0.1,0.3,0,0.4c0,0.1,0.2,0.2,0.4,0.4l1.3,0.7c0.4,0.2,0.8,0.4,1.1,0.3
		c0.3,0,0.6-0.1,1-0.4c0.5-0.3,1.1-0.9,1.9-1.8l0.2,0.1l-2.8,3.6l-6-3.2l0.2-0.4l0.3,0.1c0.2,0.1,0.4,0.1,0.7,0
		c0.2-0.1,0.4-0.2,0.5-0.4c0.2-0.2,0.5-0.7,0.9-1.5l5.5-10.2c0.5-1,0.8-1.6,0.8-1.9c0-0.4-0.1-0.7-0.4-0.8l-0.3-0.2l0.2-0.4l6,3.2
		l-1.8,3.5l-0.2-0.1c0.4-0.9,0.6-1.5,0.7-1.8c0.1-0.4,0-0.7-0.1-0.9c-0.1-0.2-0.3-0.4-0.7-0.6L72.2,144.2L72.2,144.2z M88.5,167.1
		l-0.2,0.5l-3.5-1.4l0.2-0.4l0.3,0.1c0.3,0.1,0.7,0,1-0.3c0.2-0.2,0.5-0.8,0.9-1.8l4.2-10.7c0.3-0.8,0.5-1.4,0.6-1.7
		c0-0.2,0-0.4,0-0.6c-0.1-0.3-0.2-0.4-0.4-0.5l-0.3-0.1l0.2-0.5l3.5,1.4l-0.2,0.5l-0.3-0.1c-0.3-0.1-0.7,0-1,0.3
		c-0.2,0.2-0.5,0.8-0.9,1.8l-4.2,10.7c-0.3,0.8-0.5,1.4-0.6,1.7c0,0.2,0,0.4,0,0.6c0.1,0.3,0.2,0.4,0.4,0.5L88.5,167.1L88.5,167.1z
		 M102.8,152.7l-1,4.1l-0.2-0.1c0.1-0.7,0.2-1.2,0.2-1.6c0-0.5-0.1-0.9-0.2-1.2c-0.2-0.3-0.4-0.5-0.8-0.6l-1.2-0.3l-3.5,13.2
		c-0.3,1.1-0.4,1.7-0.4,2c0.1,0.4,0.3,0.6,0.6,0.7l0.3,0.1l-0.1,0.5l-3.6-1l0.1-0.5l0.3,0.1c0.4,0.1,0.7-0.1,0.9-0.5
		c0.2-0.2,0.4-0.9,0.6-1.8l3.5-13.2l-1-0.3c-0.4-0.1-0.7-0.1-0.9,0c-0.3,0.1-0.5,0.4-0.8,0.8c-0.3,0.4-0.5,1-0.8,1.8l-0.2-0.1l1.2-4
		L102.8,152.7L102.8,152.7z M157,167.9l0.1,0.5l-3.5,0.8l-0.1-0.5l0.3-0.1c0.3-0.1,0.5-0.3,0.6-0.8c0-0.3-0.1-1-0.3-2l-2.4-11.2
		c-0.2-0.9-0.3-1.5-0.5-1.7c-0.1-0.2-0.2-0.4-0.4-0.5c-0.2-0.2-0.4-0.2-0.6-0.2l-0.3,0.1l-0.1-0.5l3.5-0.8l0.1,0.5l-0.3,0.1
		c-0.3,0.1-0.5,0.4-0.6,0.8c0,0.3,0,1,0.3,2l2.4,11.2c0.2,0.9,0.3,1.5,0.5,1.7c0.1,0.2,0.2,0.4,0.4,0.5c0.2,0.2,0.4,0.2,0.6,0.2
		L157,167.9L157,167.9z M148.7,152l1.5,5.9l-0.2,0c-0.6-1.7-1.3-2.9-1.9-3.6c-0.6-0.7-1.3-0.9-1.9-0.8c-0.5,0.1-1,0.5-1.3,1.2
		c-0.3,0.7-0.5,1.7-0.4,3c0,1.3,0.2,3,0.6,4.9c0.3,1.6,0.8,2.9,1.2,4c0.5,1.1,1,1.9,1.7,2.4c0.6,0.5,1.2,0.7,1.8,0.5
		c0.5-0.1,1-0.5,1.3-1.1c0.3-0.6,0.6-1.6,0.7-3.2l0.2,0.2c-0.1,1.6-0.3,2.9-0.7,3.7c-0.4,0.8-1,1.4-1.7,1.5
		c-1.4,0.3-2.7-0.5-3.9-2.5c-0.9-1.5-1.6-3.3-2.1-5.4c-0.4-1.7-0.5-3.4-0.5-4.9c0.1-1.5,0.3-2.8,0.8-3.7c0.5-0.9,1.1-1.5,1.9-1.7
		c0.6-0.1,1.3,0,2,0.5c0.2,0.1,0.4,0.2,0.4,0.2c0.1,0,0.2-0.1,0.2-0.3c0.1-0.3,0.1-0.6,0-1L148.7,152L148.7,152z M139.2,153.9l1.3,6
		l-0.2,0.1c-0.3-1.1-0.7-2-1-2.7c-0.3-0.6-0.7-1.1-1.2-1.4c-0.4-0.3-0.8-0.4-1.2-0.4c-0.4,0.1-0.7,0.5-0.9,1.1c-0.2,0.6-0.2,1.3,0,2
		c0.1,0.5,0.3,1,0.6,1.4c0.4,0.6,1.2,1.3,2.4,2.1c1,0.7,1.6,1.2,2,1.6c0.4,0.4,0.7,0.9,1,1.5c0.3,0.6,0.5,1.2,0.7,1.9
		c0.3,1.3,0.3,2.5,0,3.6c-0.3,1.1-0.8,1.7-1.6,1.9c-0.2,0.1-0.5,0.1-0.7,0c-0.1,0-0.4-0.1-0.9-0.3c-0.5-0.2-0.7-0.3-0.8-0.2
		c-0.1,0-0.2,0.1-0.2,0.2c0,0.1,0,0.4,0,0.8l-0.2,0.1l-1.3-6l0.2-0.1c0.4,1.2,0.7,2.1,1,2.7c0.3,0.6,0.7,1,1.2,1.4
		c0.5,0.3,0.9,0.4,1.3,0.3c0.5-0.1,0.8-0.5,1-1.1c0.2-0.6,0.2-1.3,0-2.1c-0.1-0.4-0.2-0.8-0.4-1.3c-0.2-0.4-0.5-0.8-0.8-1.1
		c-0.2-0.2-0.8-0.7-1.7-1.3c-0.9-0.7-1.5-1.2-1.9-1.6c-0.4-0.4-0.8-0.9-1-1.5c-0.3-0.6-0.5-1.2-0.7-1.9c-0.3-1.2-0.3-2.4,0-3.4
		c0.3-1,0.7-1.6,1.4-1.8c0.4-0.1,1,0,1.5,0.4c0.3,0.2,0.5,0.2,0.6,0.2c0.1,0,0.2-0.1,0.2-0.3c0-0.1,0-0.4,0-0.8L139.2,153.9
		L139.2,153.9z M157,151.7l1.5,6.8l1.8-0.5c0.5-0.1,0.7-0.3,0.8-0.7c0.1-0.4,0.1-1.2-0.1-2.2l0.2-0.1l1.4,6l-0.2,0.1
		c-0.2-0.8-0.4-1.4-0.5-1.6c-0.1-0.3-0.3-0.5-0.5-0.6c-0.2-0.1-0.5-0.1-0.8-0.1l-1.8,0.5l1.3,5.7c0.2,0.8,0.3,1.2,0.4,1.4
		c0.1,0.2,0.2,0.3,0.3,0.4c0.1,0.1,0.3,0.1,0.5,0l1.4-0.4c0.4-0.1,0.8-0.3,0.9-0.5c0.2-0.2,0.3-0.5,0.4-1c0.1-0.6,0.2-1.5,0.2-2.6
		l0.2-0.1l0.3,4.5l-6.1,1.6l-0.1-0.5l0.3-0.1c0.2,0,0.3-0.2,0.5-0.4c0.1-0.2,0.1-0.4,0.1-0.7c0-0.3-0.1-0.8-0.3-1.7l-2.5-11.2
		c-0.2-1.1-0.5-1.8-0.6-2c-0.2-0.3-0.5-0.4-0.8-0.3l-0.3,0.1l-0.1-0.5l6.1-1.6l0.9,3.8l-0.2,0.1c-0.3-0.9-0.5-1.5-0.7-1.8
		c-0.2-0.3-0.4-0.5-0.6-0.7c-0.2-0.1-0.5-0.1-0.9,0L157,151.7L157,151.7z M161.8,149.5l2.2-0.6l7.8,11.7l-2.3-10
		c-0.2-1.1-0.4-1.7-0.6-1.9c-0.2-0.3-0.5-0.4-0.8-0.4l-0.3,0.1l-0.1-0.5l2.8-0.7l0.1,0.5l-0.3,0.1c-0.3,0.1-0.5,0.4-0.6,0.9
		c0,0.3,0.1,0.9,0.3,1.9l3.3,14.6l-0.2,0.1l-8.4-12.6l2.4,10.7c0.2,1.1,0.4,1.7,0.6,2c0.2,0.3,0.5,0.4,0.8,0.4l0.3-0.1l0.1,0.5
		l-2.8,0.7l-0.1-0.5l0.3-0.1c0.3-0.1,0.5-0.4,0.6-0.9c0-0.3-0.1-0.9-0.3-1.9l-2.7-12c-0.4-0.5-0.6-0.9-0.8-1
		c-0.2-0.2-0.4-0.3-0.6-0.4c-0.1,0-0.3,0-0.5,0L161.8,149.5L161.8,149.5z M176.7,144.7l2.2,5.6l-0.2,0.1c-0.9-1.6-1.7-2.7-2.4-3.3
		c-0.7-0.6-1.4-0.8-2.1-0.5c-0.6,0.2-0.9,0.7-1.2,1.4c-0.2,0.7-0.3,1.8-0.1,3.1c0.2,1.3,0.6,2.9,1.3,4.7c0.5,1.5,1.1,2.8,1.8,3.8
		c0.6,1,1.3,1.7,2,2.2c0.7,0.4,1.4,0.5,2,0.3c0.5-0.2,0.9-0.6,1.2-1.2c0.2-0.6,0.4-1.7,0.4-3.3l0.3,0.2c0.1,1.6,0,2.9-0.3,3.8
		c-0.3,0.9-0.8,1.5-1.6,1.7c-1.4,0.5-2.8-0.2-4.3-1.9c-1.1-1.3-2-3-2.8-5.1c-0.6-1.7-1-3.3-1.1-4.8c-0.1-1.5,0-2.8,0.4-3.8
		c0.4-1,1-1.6,1.7-1.9c0.6-0.2,1.3-0.1,2.1,0.3c0.2,0.1,0.4,0.2,0.5,0.1c0.1,0,0.2-0.2,0.2-0.3c0-0.3,0-0.6-0.1-1L176.7,144.7
		L176.7,144.7z M180.9,144.6l2.4,6.6l1.8-0.7c0.5-0.2,0.7-0.4,0.8-0.8c0.1-0.5,0-1.2-0.4-2.1l0.2-0.1l2.1,5.8l-0.2,0.1
		c-0.3-0.8-0.6-1.3-0.7-1.5c-0.2-0.3-0.4-0.4-0.6-0.5c-0.2-0.1-0.5-0.1-0.9,0l-1.8,0.7l2,5.5c0.3,0.7,0.4,1.2,0.5,1.3
		c0.1,0.1,0.2,0.3,0.3,0.3c0.1,0.1,0.3,0.1,0.5,0l1.4-0.5c0.5-0.2,0.8-0.4,1-0.6c0.2-0.2,0.3-0.5,0.3-1c0.1-0.6,0-1.5-0.1-2.6
		l0.2-0.1l0.8,4.5l-6.4,2.3l-0.2-0.5l0.3-0.1c0.2-0.1,0.3-0.2,0.5-0.5c0.1-0.2,0.1-0.4,0.1-0.7c0-0.3-0.2-0.8-0.5-1.6l-3.9-10.9
		c-0.4-1.1-0.7-1.7-0.9-1.9c-0.3-0.3-0.6-0.4-0.9-0.2l-0.3,0.1l-0.2-0.5l6.4-2.3l1.4,3.6l-0.2,0.1c-0.4-0.8-0.7-1.4-0.9-1.7
		c-0.2-0.3-0.5-0.5-0.7-0.6c-0.2-0.1-0.5,0-0.9,0.1L180.9,144.6L180.9,144.6z"/>
</g>
</svg>
